<!--?xml version="1.0" standalone="no"?-->
              <svg id="sw-js-blob-svg" viewBox="0 0 100 100" xmlns="http://www.w3.org/2000/svg" version="1.1">
                    <defs> 
                        <linearGradient id="sw-gradient" x1="0" x2="1" y1="1" y2="0">
                            <stop id="stop1" stop-color="rgba(183.352, 91.265, 47.682, 0.6)" offset="0%"></stop>
                            <stop id="stop2" stop-color="rgba(76.317, 110.347, 201.567, 0.79)" offset="100%"></stop>
                        </linearGradient>
                    </defs>
                <path fill="url(#sw-gradient)" d="M17.4,-19.4C24.8,-14.5,34.6,-11.2,38.6,-4.5C42.6,2.2,40.7,12.3,36.1,21.4C31.5,30.5,24.2,38.5,16.4,38.6C8.5,38.7,0.1,30.7,-7,25.5C-14.2,20.2,-20.1,17.6,-24.8,12.7C-29.5,7.9,-32.9,0.7,-31.3,-5.1C-29.8,-10.8,-23.1,-15.2,-17.1,-20.4C-11,-25.5,-5.5,-31.4,-0.2,-31.1C5,-30.8,10,-24.3,17.4,-19.4Z" width="100%" height="100%" transform="translate(50 50)" stroke-width="0" style="transition: all 0.3s ease 0s;"></path>
              </svg>