<!--?xml version="1.0" standalone="no"?-->
              <svg id="sw-js-blob-svg" viewBox="0 0 100 100" xmlns="http://www.w3.org/2000/svg" version="1.1">
                    <defs> 
                        <linearGradient id="sw-gradient" x1="0" x2="1" y1="1" y2="0">
                            <stop id="stop1" stop-color="rgba(203.843, 121.677, 56.463, 0.28)" offset="0%"></stop>
                            <stop id="stop2" stop-color="rgba(222.125, 103.935, 224.335, 0.56)" offset="100%"></stop>
                        </linearGradient>
                    </defs>
                <path fill="url(#sw-gradient)" d="M19.2,-27.6C22.5,-20.2,20.9,-11.8,23.7,-3.1C26.5,5.6,33.6,14.5,32.8,21.9C32.1,29.3,23.5,35,14.1,38.2C4.8,41.3,-5.3,41.9,-10,36.3C-14.6,30.7,-13.7,19.1,-17.7,10.9C-21.6,2.7,-30.3,-2.1,-31.1,-6.8C-31.9,-11.6,-24.7,-16.3,-18.2,-23.1C-11.7,-30,-5.9,-39,1.1,-40.2C8,-41.5,16,-35.1,19.2,-27.6Z" width="100%" height="100%" transform="translate(50 50)" stroke-width="0" style="transition: all 0.3s ease 0s;" stroke="url(#sw-gradient)"></path>
              </svg>