<?xml version="1.0" encoding="UTF-8"?>
<svg id="Layer_2" data-name="Layer 2" xmlns="http://www.w3.org/2000/svg" viewBox="0 0 208.42 158.8">
  <g id="OBJECTS">
    <g>
      <path d="M59.24,147.07c-.9-.67-.74-.99-.14-1.58,.53-1.09,.43-2.1-.57-2.83-.47-.34-1.18,.22-.99,.53,.82,1.37-2.78,1.97-.66,3.17,2.19,1.24,.79,2.38,.32,3.6-.16,.43-1.19,.7-.17,1.26,.38,.21,.85,.54,1.2,.46,1.28-.3,2.13-3.78,1.02-4.61Z"/>
      <path d="M97.54,148.19c-1.25-.04-2.1,.35-2.17,1.54-.07,1.1,.9,.9,1.54,1,.98,.15,2.1,.22,2.21-1.11,.08-1.03-1.01-1.15-1.58-1.43Z"/>
      <path d="M195.33,109.75c1.16,.76,1.52,2.82,3.54,2.22,.26-1.68,.52-3.36,.79-5.05-2.33-.42-3.2,1.41-4.32,2.83Z"/>
      <path d="M207.62,50.04c-.88-.74-1.68-1.93-2.92-.51-.66,.75-1.29,1.74-.55,2.57,1.07,1.21,1.87-.24,2.78-.6,.4-.16,.91-.06,1.37-.08,.04-.24,.07-.48,.11-.72-.27-.22-.53-.44-.8-.66Z"/>
      <path d="M186.56,86.52c-5.11-1.46-5.26-1.78-3.8-6.2,.84-2.56-.13-5-2.33-5.82-.54-.2-.7-.59-.73-1.1-.33-4.92-2.91-9.1-4.58-13.57-.49-1.32,.18-1.7,.97-2.27,1.07-.77,3.08-.69,2.71-2.8-.36-2.08-1.66-3.37-3.59-4.19-5.01-2.14-10.76,.06-13.54,5.06-2.04,.57-.62-5.58-4.32-1.91-.16,.16-.8-.28-.9-.88-.34-2.18-2.97-2.6-3.61-4.61-.12-.36-.73-.54-1.28-.28-1.34,.62-1.14,.31-1.95-.29-1.25-.93,.04-4.9-3.54-3.03-.13,.07-.47-.12-.62-.28-1.21-1.26-1.97-3.28-4.47-1.49-.65,.47-.36-1.25-.43-1.98,1.46-.47,.9-1.65,.85-2.61,0-.06-.66-.25-.88-.13-1.16,.62,.36,1.71-.38,2.43-1.54-1.4-2.01,1.25-3.27,1.01,.55-5.25-.3-9.97-5.06-12.76-4.62-2.71-9.51-2.7-14.06,.42-3.97,2.72-4.94,7.25-6.65,11.34-.41,.98,.47,3.49-1.59,2.59-1.32-.57-2.23,.34-3.22-.17-6-3.06-11.73-2.23-16.36,2.34-.94,.93-1.87,1.99-3.01,2.56-2.3,1.15-3.38,2.93-3.6,5.38,.36,.13,.64,.32,.33,.71-.04,.05-.5-.25-.76-.39-1.01-.61-2.01-1.21-3.02-1.82,1.75-2.15,4.54-3.57,3.08-7.14-.5-1.21,1.08-1.13,2.02-1.16,4.1-.12,5.93-1.88,6.01-5.76,.06-2.64-3.31-6.47-5.73-6.01-2.96,.56-3.35,3.02-2.91,5.6,.12,.7,.53,1.83-.4,1.67-2.96-.5-4.68,1.51-6.75,2.86-1.2,.78-2.16,.44-3.19-.41,.94-1.23,2.09-.98,3.1-1.23,2.03-.5,2.78-2.39,3.19-4.06,.47-1.87-1.6-2.02-2.68-2.21-3.1-.54-3.23-2.73-3.36-5.1-.28-4.98-1.64-7.17-5.17-7.42-2.58-.18-3.06-.78-2.14-3.2,.69-1.82-.2-3.56-1.91-4.61-2.65-1.62-5.57-2.34-8.67-2.08-5.68,.47-8.26,4.48-10.14,9.17-1.79,4.46-1.19,8.54,2.11,12.12,.87,.95,2.05,1.65,2.33,3.12-.76,.11-1.48,.19-2.19,.32-2.54,.47-4.46,.35-3.2-3.11,.1-.27-.31-.74-.2-1.01,.91-2.35-1.88-2.81-2.42-2.98-2.51-.76-1.64,2.26-2.66,3-1.68,1.23,.43,1.46,.22,2.16,3.53,.79,.97,2.12,.31,3.3-.41,.73-.63,1.61-1.16,2.23-1.27,1.47-2.98,2.94-4.76,2.96-1.48,.01-2.26-1.93-2.19-3.19-1.15,1.07-1.54,2.72-1.04,4.68,.18,.7-.14,1.99-.67,2.34-2.23,1.44-2.25,4.28-4.3,5.98-4.33,3.59-3.8,9.67-6.32,14.38-1.65,3.09-1.92,7.82,.64,11.72,1.09,1.66,1.98,3.75,.94,6.06-.36,.8-1.16,1.97-.11,2.93,1.21,1.1,1.92-.81,3.4-.57-2.41,3.29,1.26,6.28-.17,9.43,1.95-.43,3.02-2.17,4.96-2.32,.32,1.82-1.2,4.55,.48,4.88,5.47,1.07,1.36,3.27,.79,4.88-.44,1.23-.74,1.69,.79,2.57,1.96,1.14,2.37,.5,2.74-1.17,1.93,2.42,3.82,2.15,5.68-.08,1.9,2.44,6.35,2.09,7.08,3.33,1.68,2.88,4.15,4.47,6.75,6.52-6.38,.31-8.97,1.56-9.44,4.54-.37,2.36-.23,4.77,2.39,5.78,1.74,.67,3.65,1.5,5.59,.52,1.71-.86,2.83-2.39,3.81-4.12,5.66,8.72,12.68,13.52,17.55,12.13,.16,1.25,.41,2.51-.3,3.94,.48-1.49,3.37,1.02,2.71-1.98-.19-.88,.61-.6,.88-.43,2.31,1.45,5.16,1.73,7.6,2.28,3.27,.74,5.26,.42,2.4,4.15-.5,.64-.07,1.71,.93,1.88,.5,.09,.65,1.19,1.38,.43,.39-.4,.54-.86,.17-1.27-.51-.57-1.22-.65-.05-1.65,.98-.83,1.29-.36,1.96-.11,1.04,.39,1.13,.78,.56,1.87-.44,.84-1.72,2.56,.74,3,.56,.1,.32,.53,.02,.6-.68,.16-2.18-.14-1.24,1.09,.78,1.02,2.39,1.87,3.85,1.26,1.03-.43,.8-1.53,.41-2.53-.52-1.33-.86-2.73-1.28-4.1-.21-.68-.62-1.52,.29-1.86,1.3-.48,.69,.77,.97,1.25,.45,.79,1.18,.5,1.25-.09,.16-1.27,1.27-3.32-1.76-2.79-.8,.14-2.01,.11-2.54-1.43,2.88-.23,2.39-2.34,2-4.78,2.25,1.84,3.85,1.75,4.82-.68,1.48,1.44,.18,3.54,1.53,4.84,.97-.35,1.07-2.03,2.36-1.64,1.47,.83-1.13,2.44,.72,3.01,2.05,.62,3.71,2.43,5.43,2.85,2.7,.66,4.23,1.44,4.01,4.65q2.46-3.02,5.05-1.13c.63-2.59,1.69-3.56,3.69-.98,.18,.23,.27,1.5,1.07,.27,1.63-2.54,2.15,.25,3.2,.71,1.54,.67-.55,5.7,3.74,3.09,.33-.2,.16,.75,.22,1.17,.87,5.45,4.69,9.23,10.12,9.8,5.28,.55,9.06-2,11.98-6.12,4.68-6.6,3.62-14.05,2.87-21.37-.17-1.72-.36-2.28,1.48-3.49,2.96-1.95,6.88-2.95,8.57-6.61,1.18,.92,2.04-3.4,3.46-.19,.2,.44,1.05-.34,.93-1.26-.18-1.31,1.14-2.33,1.68-1.9,2.25,1.77,4.22,1.24,5.72,.03-2.14,.41-2.22-.95-2.66-3.3-.43-2.35,2.7-1.46,1.97-3.25,1.98-.79,.65-3.91,1.52-3.85,2.94,.18,2.18-1.16,2.37-3.03,.11-1.08,.51-2.92,1.91-4.08,.73-.61,1.63-2,1.42-3.48-.08-.55,.1-1.36,.48-1.69,.47-.41,1.5,1.34,1.92-.16,.35-1.27-1.49-.47-1.65-1.4-.08-.47-.12-.96-.09-1.43,.14-2.37-.58-5.19,3.86-5.6Z"/>
      <path d="M66.76,14.03c1.95,1.97,3.13,1.41,4.86-.23-1.05,3.35-.11,6.05,1.93,8.28,2.3,2.52,5.38,3.49,8.57,2.32,2.69-.99,5.27-2.47,5.14-6.19-.13-3.75-2.28-5.65-5.45-6.89-3.06-1.2-6.05-1.12-9,.57,.02-2.25,1.37-4.86-1.32-5.94-1.71-.69-3.8-.93-5.48,1.13-2.29,2.79-1.61,4.57,.75,6.96Z"/>
      <path d="M10.52,73.76c-3.71-.63-6.62,1.1-7.17,4.25-.47,2.68,2.24,5.98,5.39,6.56,2.37,.44,6.33-2.15,6.62-4.32,.41-3.06-1.75-5.96-4.83-6.48Z"/>
      <path d="M90.76,29.92c-.51,4.02,2.59,8.73,5.41,9.04,2.02,.22,5.47-2.97,5.72-5.29,.3-2.87-2.43-5.93-5.6-6.36-2.76-.37-4.46,.97-5.53,2.61Z"/>
      <path d="M35.82,125.49c.43-2.73-1.46-5.62-4.13-6.44-2.6-.8-3.45,.93-4.15,2.82-.83,2.22,.5,2.72,2.32,2.91,.99,.11,2.23-.11,2.45,1.52,.11,.82-.02,2.27,1.51,1.88,1.25-.32,1.89-1.39,2.01-2.7Z"/>
      <path d="M78.42,26.96c-1.99-.31-4.58-.55-4.64,2.38-.05,3.1,3.19,3.3,5.18,4.01,1.95,.69,2.46-1.69,3.08-2.74,.42-3.22-1.84-3.37-3.63-3.65Z"/>
      <path d="M91.86,14.05c1.29,.73,2.49-.78,3.6-1.36-.28-2.66-1.39-4.39-3.67-5.2-1.49-.53-2.72-.05-3.09,1.52-.62,2.63,1.38,4.04,3.16,5.04Z"/>
      <path d="M53.29,129.14c-3.06-1.31-5.49,.09-8.03,2.15,2.85,2.28,5.55,2.65,8.52,.67,2.23-1.49,.93-2.2-.5-2.81Z"/>
      <path d="M187.43,136.31c-2.38,.27-2.92,2.84-4.05,4.58-.34,.54,.18,1.29,.85,1.21,1.88-.23,3.85-.44,4.45-2.76,.08-1.29-.24-3.15-1.26-3.03Z"/>
      <path d="M201.24,88.41c.06-.67,.26-1.5-.43-1.95-.63-.42-1.35-.51-1.73,.44-.49,1.23-1.49,.64-2.13,.4-2.12-.82-4.15,.02-6.64-.08,3,2.55,6.43,1.17,9.32,2.21,.51,.18,1.53-.06,1.61-1.02Z"/>
      <path d="M23.34,120.13c-1.17,1.07-.5-.35-.6-.6-.56-1.32-1.28-1.28-2.59-.84-3,1.02-1.94,2.91-1.05,4.76,.16-.71,.25-1.44,.49-2.12,.21-.6-.18-1.62,.88-1.7,1.13-.09,1.42,.61,1.31,1.63-.03,.31,.19,.69,.38,.98,.37,.54,.57,1.65,1.42,1.21,1.32-.68,1.38-2.27,1.3-3.46-.05-.81-.89-.48-1.55,.13Z"/>
      <path d="M166.95,20.48c1.63,.11,2.56-1.75,3.04-3.06,.4-1.09-1.23-1.9-2.1-2.11-1.07-.26-2.27,.35-2.14,1.2,0,2.01-.69,3.83,1.2,3.96Z"/>
      <path d="M148.84,15.42c1.65,.09,2.83-.92,3.26-2.4,.34-1.18-.43-2.09-1.69-2.33-1.77-.34-2.39,.7-2.58,2.49,.16,.66-.91,2.13,1.01,2.24Z"/>
      <path d="M191.44,121.27c-.66-.2-1.04,.1-1.5,.62-1.53,1.7-2.33,3.62-2.3,6.83,2.39-1.9,4.3-3.22,4.43-5.96,.03-.58,.16-1.25-.62-1.49Z"/>
      <path d="M54.87,4.68c1.76,.09,2.72-1.17,3.69-2.36-.23-1.21-.61-2.26-1.94-2.31-1.83-.08-2.49,1.29-2.78,2.76-.15,.73-.2,1.86,1.03,1.92Z"/>
      <path d="M167.42,33.64c.92-.98,.17-3.29-1.11-3.97-2.12-1.11-2.5,1.44-3.92,2.79,2.15,.08,3.32,3.01,5.04,1.18Z"/>
      <path d="M132.68,23.96c2.3-.17,2.13-3.26,4.14-3.99,.05-.02-.41-1.1-1.03-1.15-2.6-.18-2.82,1.94-3.47,3.63,.43,.48-1.12,1.61,.36,1.5Z"/>
      <path d="M194.61,32.76c1.41,.22,2.11-.8,2.47-2.15,.04-.99-.33-1.71-1.54-1.85-1.21-.14-2.1,.07-2.25,1.5-.13,1.16,0,2.3,1.32,2.51Z"/>
      <path d="M10.1,87.77c-.85-.25-1.45,.4-1.46,1.16,0,1.37,.42,2.8,1.99,2.98,.78,.09,2.02-.23,1.91-1.32,.11-2.06-1.22-2.46-2.45-2.82Z"/>
      <path d="M137.6,25.83c.64,.7,1.48,1.73,2.3,1.33,1.35-.66,.42-1.5-.28-2.23-.6-.63-.89-1.45-.63-2.35,.19-.66,1.96-1.43-.13-1.92-1.47-.35-.95,1.32-1.73,1.66,.72,1.13-.49,2.46,.47,3.52Z"/>
      <path d="M20.92,22.21c.96,.03,2.24-.44,2.11-1.42-.19-1.33-1.09-2.54-2.31-3.13-1.4-.07-1.56,.85-1.51,1.66,.07,1.21-.22,2.82,1.71,2.88Z"/>
      <path d="M33.83,134.8c2.41,.87,4.81,1.83,7.56,0-2.98-2.18-5.22-.3-7.56,0Z"/>
      <path d="M3.83,86.14c-1.92,.74-2.23,2.26-1.71,4.8,1.42-1.5,3.15-2.17,2.85-4.23-.09-.61-.74-.73-1.14-.57Z"/>
      <path d="M170.41,29.08c.98-.06,2.25,.2,2.44-1.35,.15-1.21-.79-1.57-1.75-2.1-.95,.13-1.56,.69-1.73,1.76-.14,.88-.22,1.77,1.04,1.69Z"/>
      <path d="M1.43,37.73c-.86-.12-1.61,.28-1.39,1.08,.33,1.14-.38,2.77,.71,3.34,.77,.4,2.13-.2,1.9-1.46,.18-1.46,.59-2.7-1.23-2.95Z"/>
      <path d="M34.71,6.16c.83,.08,1.4-.29,1.42-1.7-.5-.54-.76-1.93-1.99-2.13-.61-.1-1.19,.96-1.16,1.79,.03,1.08,.53,1.93,1.73,2.04Z"/>
      <path d="M93.15,22.75c1.35-1.94-.23-2.95-1.33-4.21-1.18,1.42-2.1,2.77-.46,4.35,.62,.6,1.3,.56,1.79-.14Z"/>
      <path d="M177.12,31.93c.81,.2,1.4-.05,1.65-.97,.07-.87-.27-1.58-1.15-1.91-.94-.35-1.76,.13-2.02,.92-.37,1.15,.5,1.71,1.52,1.96Z"/>
      <path d="M32.23,110.59c-.39-.76-.27-1.84-1.63-1.95-1.02-.08-2.22,.02-2.5,.94-.49,1.6,1.45,1.09,2.11,1.87,.93,1.11,1.3-.3,2.03-.86Z"/>
      <path d="M18.27,46.1c-.23,1.08,.71,1.68,1.17,2.49,.66,1.16,1.45,.23,2.15,.19,.17,0,.29-.76,.44-1.17-1.67,.26-2.55-.46-3.02-2.72-.25,.4-.64,.77-.74,1.21Z"/>
      <path d="M184.67,114.93c-1.09-.21-1.19,.57-1.37,1.21-.27,.99-.14,2.02,.92,2.41,.87,.32,1.61-.14,2.03-1.34-.55-.62-.06-1.99-1.58-2.29Z"/>
      <path d="M37.41,115.07c-1.03-.95-1.66-2.62-3.34-1.72-.42,.23-.95,1.19-.81,1.39,1.12,1.64,2.72,.28,4.15,.34Z"/>
      <path d="M201.45,70.02c.87,.23,1.1-.72,1.21-1.45,.18-1.14-.34-1.82-1.45-2.06-.95-.19-1.28,.32-1.44,1.16-.26,1.4,.66,2.08,1.68,2.35Z"/>
      <path d="M174.81,121.07c-.06,.01-.1,.02-.15,.04-.22-.19-.44-.33-.69,.01-.05,.06,0,.3,.06,.33,.06,.03,.11,.03,.16,.04-.1,.36,.19,.85,.08,1.21,.39,.28,.78,.56,1.18,.85,.6-1.03-.47-1.58-.69-2.37l.05-.1Z"/>
      <path d="M173.62,123.35c.36-.03,.8,.01,.63-.58,0,0,0-.01,0-.02,0-.02,.01-.04,.02-.06,0,0,0,0-.01,0-.21,.22-.43,.44-.64,.67Z"/>
      <path d="M173.2,123.78c.14-.14,.28-.29,.41-.43-.25,.02-.47,.09-.41,.43Z"/>
      <path d="M186.66,92.32c-.19,0-.39,.15-.59,.23,.15,.14,.31,.28,.48,.42,.17-.1,.33-.2,.49-.3-.13-.13-.25-.35-.38-.36Z"/>
      <path d="M23.04,52.2c-.19-.33-.34-.58-.48-.82-.16,.16-.41,.3-.44,.47-.04,.27,.07,.56,.12,.85,.23-.15,.47-.3,.8-.5Z"/>
    </g>
  </g>
</svg>