<?xml version="1.0" encoding="UTF-8"?>
<svg xmlns="http://www.w3.org/2000/svg" xmlns:xlink="http://www.w3.org/1999/xlink" viewBox="0 0 208.71 153.55">
  <defs>
    <style>
      .cls-1 {
        fill: url(#linear-gradient-2);
      }

      .cls-2 {
        isolation: isolate;
      }

      .cls-3 {
        opacity: .2;
      }

      .cls-4 {
        font-family: BebasNeueRegular, 'Bebas Neue';
        font-size: 112.68px;
        letter-spacing: .05em;
      }

      .cls-4, .cls-5 {
        fill: #fff;
      }

      .cls-6 {
        fill: url(#linear-gradient-5);
      }

      .cls-7 {
        clip-path: url(#clippath);
      }

      .cls-8 {
        fill: none;
      }

      .cls-9 {
        opacity: .3;
      }

      .cls-9, .cls-5 {
        mix-blend-mode: overlay;
      }

      .cls-5 {
        opacity: .13;
      }

      .cls-10 {
        fill: url(#linear-gradient-3);
      }

      .cls-11 {
        fill: url(#linear-gradient);
      }

      .cls-12 {
        fill: url(#linear-gradient-4);
      }
    </style>
    <linearGradient id="linear-gradient" x1="-99.1" y1="-7.05" x2="365.49" y2="214.29" gradientUnits="userSpaceOnUse">
      <stop offset="0" stop-color="#95ffd8"/>
      <stop offset=".5" stop-color="#5a62c4"/>
      <stop offset="1" stop-color="#ac23ab"/>
    </linearGradient>
    <linearGradient id="linear-gradient-2" x1="39.89" y1="-2.67" x2="155.14" y2="52.24" xlink:href="#linear-gradient"/>
    <linearGradient id="linear-gradient-3" x1="-35.03" y1="11.19" x2="261.56" y2="176.24" xlink:href="#linear-gradient"/>
    <clipPath id="clippath">
      <path class="cls-8" d="M23.62,29.93C-5.14,39.13,.15,72.17,.78,83.64c1.15,20.72,12.82,49.2,31.5,58.22,9.27,4.48,23.79,2.47,32.24-.51,21.71-7.67,31.25-7.95,43.22-3.26,5.98,2.34,17.01,4.84,21.2,5.74,29.61,6.4,56.96-16.04,64.66-45.34,8.21-31.26-8.56-65.5-39.82-73.52-11.76-3.02-23.06-1.32-36.25,3.92-61.83,33.37-60.74-9.58-93.9,1.04Z"/>
    </clipPath>
    <linearGradient id="linear-gradient-4" x1="171.72" y1="42.18" x2="243.47" y2="122.09" xlink:href="#linear-gradient"/>
    <linearGradient id="linear-gradient-5" x1="34.89" y1="-6.67" x2="150.14" y2="48.24" xlink:href="#linear-gradient"/>
  </defs>
  <g class="cls-2">
    <g id="Layer_2" data-name="Layer 2">
      <g id="OBJECTS">
        <g>
          <g class="cls-3">
            <path class="cls-11" d="M204.36,53.63c-3.64-2.79-8.67-2.84-13.2-.62-7.24-11.53-18.35-20.43-32.39-24.04-11.76-3.02-23.06-1.32-36.25,3.92-61.83,33.37-60.74-9.58-93.9,1.04C-.14,43.13,5.15,76.17,5.78,87.64c1.15,20.72,12.82,49.2,31.5,58.22,9.27,4.48,23.79,2.47,32.24-.51,21.71-7.67,31.25-7.95,43.22-3.26,5.98,2.34,17.01,4.84,21.2,5.74,29.61,6.4,56.96-16.04,64.66-45.34,2.1-8.01,2.56-16.22,1.56-24.13,1.72-1.13,3.32-2.59,4.69-4.37,5.33-6.95,5.12-16.07-.48-20.36Z"/>
            <path class="cls-1" d="M90.7,37.37c14.45-1.38,25.45-9.93,24.58-19.09-.88-9.16-13.3-15.47-27.75-14.09-14.45,1.38-25.45,9.93-24.58,19.09,.88,9.16,13.3,15.47,27.75,14.09Z"/>
          </g>
          <g>
            <path class="cls-10" d="M23.62,29.93C-5.14,39.13,.15,72.17,.78,83.64c1.15,20.72,12.82,49.2,31.5,58.22,9.27,4.48,23.79,2.47,32.24-.51,21.71-7.67,31.25-7.95,43.22-3.26,5.98,2.34,17.01,4.84,21.2,5.74,29.61,6.4,56.96-16.04,64.66-45.34,8.21-31.26-8.56-65.5-39.82-73.52-11.76-3.02-23.06-1.32-36.25,3.92-61.83,33.37-60.74-9.58-93.9,1.04Z"/>
            <g class="cls-9">
              <text class="cls-4" transform="translate(131.46 133.38)"><tspan x="0" y="0">”</tspan></text>
            </g>
            <g class="cls-7">
              <circle class="cls-5" cx="7.36" cy="23.48" r="36.23" transform="translate(-17.21 24.82) rotate(-75.72)"/>
              <circle class="cls-5" cx="133.23" cy="144.93" r="49.12" transform="translate(-46.36 64.3) rotate(-23.23)"/>
              <circle class="cls-5" cx="39.79" cy="98.29" r="18.11" transform="translate(-57.85 56.93) rotate(-45)"/>
            </g>
            <path class="cls-12" d="M199.84,69.99c-5.33,6.96-14.19,9.11-19.79,4.82-5.6-4.29-5.81-13.41-.48-20.36,5.33-6.96,14.19-9.11,19.79-4.82,5.6,4.29,5.81,13.41,.48,20.36Z"/>
            <path class="cls-6" d="M110.28,14.28c.88,9.16-10.13,17.71-24.58,19.09-14.45,1.38-26.87-4.93-27.75-14.09C57.08,10.12,68.08,1.57,82.53,.19c14.45-1.38,26.87,4.93,27.75,14.09Z"/>
            <g class="cls-9">
              <text class="cls-4" transform="translate(32.56 133.38)"><tspan x="0" y="0">“</tspan></text>
            </g>
          </g>
        </g>
      </g>
    </g>
  </g>
</svg>