<?xml version="1.0" encoding="UTF-8"?>
<svg id="Layer_2" data-name="Layer 2" xmlns="http://www.w3.org/2000/svg" viewBox="0 0 989.65 134.39">
  <g id="Layer_2-2" data-name="Layer 2">
    <g id="BRUSH">
      <g>
        <path d="M930.45,102.86s.07-.06,.1-.09c0-.07-.23,.01-.1,.09Z"/>
        <path d="M867.13,116.31c-.19-.12-.49-.21-.68-.29s-.78-.16-.76,.12c.02,.27,.36,.27,.59,.3,.23,.03,.6-.08,.84-.13h0Z"/>
        <path d="M219.17,23.83c-.15,.02-.64,.1-.18,.14,.05,0,.15-.1,.18-.14Z"/>
        <path d="M182.36,22.16c-.84-.13-1.67-.25-2.51-.37-.77,.64-.32,.96,.46,1.09,.87,.14,1.58,.18,2.05-.71h0Z"/>
        <path d="M862.01,117.1c-1.22,.08-1.49,.15-1.51,1.25,2.34-.17,4.63-.33,6.95-.5,.07-.06,.3-.34,.13-.39-1.7-.54-3.96-.46-5.57-.36Z"/>
        <path d="M889.96,114.42c-.02,.11-.08,.18-.15,.23,.06,.01,.25-.13,.15-.23Z"/>
        <path d="M888.83,114.62h-.02s.05,.02,.02,0Z"/>
        <path d="M924.54,111.2c.22,.03,1.1-.22,.57-.48-.38-.19-1.09-.15-1.46-.15s-1.02,.14-.45,.42c.37,.18,.93,.17,1.35,.22h0Z"/>
        <path d="M858.39,116.37c-.15,0-.87-.07-.98-.02-2.17,1-4.37,1.23-6.51,2.17,0,0-.05,0-.02,0,1.51,.42,3.38,.24,4.81,.14,.07,0,.11,0,.16-.01t.06,0c.09,0,.04,0-.01,0h.14c.5-.04,1.37-.12,1.94-.15,.54-.59,.36-1.11,1.06-1.64,.22-.16-.35-.48-.62-.48h-.03Z"/>
        <path d="M896.94,115.47h-.24s.12,0,.24,0Z"/>
        <path d="M907.71,118.73c1.86-.3,3.71-.6,5.57-.9-1.99-.12-3.77-.15-5.57,.9Z"/>
        <path d="M172.2,23.18c.91-.15,.81-.18,.41-.87-.84-.31-1.65-.37-2.53-.39,.17,.38-.05,.55,.31,.91s1.35,.43,1.81,.35Z"/>
        <path d="M908.3,113.41c-4.09,.5-7.9,.34-11.86,1.61-.73,.05-1.55,.14-2.28,.16-4.94,.14-10.07,.74-14.9,1.02-1.92,.11-2.93-.01-4.45,1.17,1.91,.01,3.57,.3,5.41-.45,.86-.35,2.13-.44,3.09-.42,3.65,.09,9.65-.76,12.55-.98,1.42-.11,1.3-.08,1.07-.06,1.99,0,4.25-.24,6.3-.39,6.96-.52,13.81-1.37,20.76-1.97,7.5-.64,15.06-1.41,22.56-1.87,.99-.06,1.5-.21,2.36-.6-2.86,.1-6.02,.07-8.82,.22-10.66,.6-21.23,1.24-31.79,2.55h0Z"/>
        <path d="M219.26,23.81h0s-.03-.02-.03,0h0s-.04,.02-.03,.03c0,.01,.08,.01,.08,0h0v-.03Z"/>
        <path d="M214.57,17.72c.54-.07,2.29-.03,.61-.52-.81-.24-2.26-.28-3.19-.38-1.15,1.42,1.84,.9,2.58,.9Z"/>
        <path d="M168.22,22.65c-.12,.05-.23,.1-.35,.15,.08-.01,.18-.02,.25-.04s.05-.06,.09-.11h.01Z"/>
        <path d="M881.23,106.57h-.02s.07,.02,.08,.01l-.04-.03h-.02s.02,0,.01,0h-.02v.02Z"/>
        <path d="M877.56,109.28c-.51,.34-.41,.27,.39-.22h-.04s-.08,.05-.12,.08c.03-.02,.05-.04,.08-.07-.05,.03-.09,.06-.15,.1-.09,.06-.13,.09-.16,.12h0Z"/>
        <path d="M162.03,25.54c-.08-.09-.31-.24-.35-.05,0,.02,.31,.08,.35,.05Z"/>
        <path d="M898.65,103.07s-.03,.03-.04,.05c-.04,.09,.07,.05,.04-.05Z"/>
        <path d="M881.32,106.59c.07,.06,.39,.25,.37,.03,0-.02-.33-.06-.37-.03Z"/>
        <path d="M959.07,101.21c.58-.6-1.26-.73-1.65-.7-1.04,.08-2.02,.34-2.78,1.23,1.39,.13,3.36,.57,4.43-.53h0Z"/>
        <path d="M877.77,109c-.06,.03-.02,.06-.04,.11,.09-.06,.18-.11,.26-.17-.07,.02-.17,.03-.23,.06h0Z"/>
        <path d="M963.7,106.94h0c.09,.05,.01,0,0,0Z"/>
        <path d="M961.34,106.61c-1.01,.09-1.86,.32-2.05-.82-1.02-.6-1.38-.73-2.67-.59-2.22,.24-4.9,.27-7.21,.34h-.02s-.04-.09-.07-.16c-.42-.84-1.98-.96,.9-1,1.37-.02,3.82-.45,5.29-1.03-4.04-.33-8.09,0-12.14,.41-.02-.02,.07,.09-.03-.03-.1-.12,.15,.2-.11-.13-.35-.44-1.31-2.06-2.21-1.46-.02-.03-.01-.01-.02-.02-2.01,1.07-3.75,.66-5.92,.41-1.58-.18-3.28-1.03-4.54,.25,0,.05-.08,.16-.43,.39-.76,.51-3.66,.43-4.96,1.24-.02,.01-1.3,.09-1.43,.04-2.24-.85-2.42-.35-4.38,.51,0,0,.15-.03-.03,0s.33-.1-.22,.03c-.77,.18-3.33,.86-4.21,.27-1.52-1.01-2.53-.76-4.11-.67-1.58,.09-3.06,.21-4.62,.33-2.09,.15,1.53,.93-1.5,.7-2.67-.2-5.49-.4-8.16,.33,.01-.02,.07,.05,.05,.04-.44-.21-2.03-.74-2.36-.53-1.95,1.24-4.74,1.01-6.48,1.12-1.28,.08-1.76,0-2.07,.92,.09,.01,.04,.01,.02,.03-1.16,.99-2.44,.89-3.88,1.03-.42,.04-.93,.07-1.37,.29-2.17,1.06-.02,1.49,1.26,1.57,1.66,.1,5.5-1.14,5.89,1.33-1.85-.33-3.56-.37-5.39,.15-.69,.19-1.35,.42-2.03,.62-2.78-.02-5.5,.56-8.29,.55,2.23,.89,4.18,1.16,6.67,1.13,.32,0,1.43-1.12,1.9-1.22,.06-.02-.2-.08,.17,.01,.52,.13,1.28,.37,1.78,.96,1.14,1.35,2.62,1.34,4.16,.82-.05,0-.11,0,0,0h.05c.31,0,1.91,.36,2.18-.17h.03s0,0,.1,.04c.16,.07,.64,.18,.9,0-.06-.01,.01-.18,.64-.7,1.45-1.2,6.51-1.72,8.68-.41,.07-.05,.09-.08,.1-.09h.01s.03,0,.02,0c.05,0,.1-.01,.17-.02,1.16-.15,2.88-.45,4.07-1.04,1.56,.06,3.33,.23,4.81,.02,1.48-.21,2.33-1.48,3.58-1.91,.83-.28,.8,.07,1.56,.24,.73,1.69,3.96,1.06,4.92,.96,1.26-.13,2.94-.41,2.13-1.46,.09-.02-.75,.12,.19-.04s-1.5,.24,1.06-.19c2.66-.45,10.62-1.39,14.38-1.27,1.07,.03,1.5,.34,2.26,.76,0,.01,0,.02,.02,.04,.09,.14-.2-.22,.06,.15,.52,.74,2.79,.36,3.68-.01,.02,0,.08,.03,.11,.04,.47,.11,.94,.22,1.41,.34,.75-.06,1.45-.1,2.08-.59,.36-.14,.74-.24,1.02-.51h0s.07,.01,.12,.02c.48,.08-.78-.11,.54,.1,1.69,.26,6.4,.5,8.52-.79,1.54-.54,2.98-.6,4.48-.69,1.2-.07,2.18-.09,3.26-.65-.02-.01-.05-.03-.1-.05-.45-.23-1.79-.32-2.24-.28h.02Zm-66.83,5.37h0Zm33.25-4.24c-3.78,.38-7.75,.68-11.47,.55-2.81-.1-5.11,.1-7.8,.64-4.04,.37-7.97,.4-11.28,3.23-.07-.04-.12,0-.18-.06s-.11-.2-.18-.26h0s.03-.03,.06-.06c.2-.25-.22,.39,.28-.3,.5-.7-1.32-2.01-2.44-1.54,4.01-1.48,8.07-1.41,12.17-2.2,5.85-.12,11.65-.83,17.47-1.41,.39-.1,.77-.21,1.15-.37,2.49,.12,4.89-.08,7,1.55,.01,.01,.02,0,.03,.02-1.59,0-3.23,.06-4.8,.22h-.01Zm12.76-1.67c-1.2,.05-3.64-.11-4.93,.74,.67-.88,2.13-.9,2.39-2.14,.36,.06,.69,.16,1.06,.19,.97,.08,1.99,.14,2.95,.14,.57,0,.98-.1,1.55-.22,.49,1.5-1.71,1.25-3.03,1.3h.01Z"/>
        <path d="M877.91,109.05h-.01c.06-.04,.12-.08,.17-.11h-.06s-.09,.09-.14,.13c0,0,.02-.01,.03-.02h.01Z"/>
        <path d="M162.11,25.57h.02s.02,0,0-.01c0,0-.07-.02-.08,0,0,0,.02,.03,.03,.03h0s.02,0,.02,0v-.02Z"/>
        <path d="M878,108.94h.02s.04-.03,.05-.05c.02-.02-.09,.04-.07,.05Z"/>
        <path d="M165.51,23.72s0,.02,.04,0c.36-.14,.71-.28,1.08-.42s.77-.31,1.14-.46c.03-.01,.07-.02,.07-.03s-.11,.02-.13,.01c0,0,0,0,0,0-.41,.09-.77,.28-1.15,.46,0,0,.05,0,.04,.01,0,.02-.04-.01-.04-.01-.35,.14-.7,.29-1.06,.43h0Z"/>
        <path d="M876.26,109.94c-.32-.33-.29-.59-.74-.87-.45-.28-1.44-.36-1.95-.23-1.02,.25-.51,.42,.02,.87,.9,.24,1.75,.27,2.67,.23Z"/>
        <path d="M877.93,109.05h.02c.28-.15,.55-.31,.83-.47-.06,.03,.02-.05-.03-.01-.27,.18-.42,.24-.62,.35,0-.03-.03-.02-.03,0,0,.01,.04,0,.03,0-.02,0-.03,.02-.05,.03,.02,0,.03,0,.04-.02-.07,.05-.13,.08-.19,.13h0Z"/>
        <path d="M829.49,102.11s-.02,.01-.04,.02c-.06,.05,.06,0,.04-.02Z"/>
        <path d="M207.8,124.26s0,.02,.04,0c.36-.14,.71-.28,1.08-.43s.77-.31,1.14-.46c.03-.01,.08-.02,.08-.04s-.13-.02-.13,.01,.04,0,.03,.02c0,.02-.03-.01-.04,0-.42,.08-.92,0-1.14,.46,0,0,.02,0,0,0h0c-.39,.04-.71,.25-1.06,.43h0Z"/>
        <path d="M960.42,25.69c.3-.01,.48-.07,.25-.39-.19,.08-.25,.17-.25,.39Z"/>
        <path d="M792.26,9.07h-.02s.07,.02,.08,.01l-.04-.03h-.03v.02Z"/>
        <path d="M185.32,128.67c.15-.07,.02-.04,0,0h0Z"/>
        <path d="M123.98,127.58c-.72,.5,.92,.78,1.35,.76,1.13-.05,2.35-.34,3.35-1.07-1.51-.2-3.37-.61-4.7,.31Z"/>
        <path d="M911.11,48.74c-.3,0-.68,.15-.29,.41,.25,.17,.62,.19,.95,.23,.17,.02,.75-.23,.37-.47-.28-.18-.73-.17-1.03-.17Z"/>
        <path d="M66.77,79.93c-1.03,.02-1.7,.14-2.64,.47,2.94,.02,6.06,.22,8.97,.18,11.08-.12,22.11-.28,33.14-1.08,4.27-.31,8.43-.05,12.63-1.05,.77-.01,1.61-.07,2.37-.05,5.14,.09,10.43-.27,15.49-.34,2.01-.03,3.21,.03,4.96-.94-1.96-.11-3.67-.38-5.62,.18-.91,.27-2.32,.38-3.3,.27-3.71-.42-10.16,.13-13.02,.34-.42,.03-.72,.05-.92,.07h0c-.8,.06-.12,0,0,0-2.1,.03-4.54,.06-6.75,.12-7.27,.18-14.5,.72-21.76,1-7.83,.3-15.73,.69-23.55,.83h0Z"/>
        <path d="M962.06,25.67c.36-.25,.24-.41-.1-.59,.03,.19,.07,.39,.1,.59Z"/>
        <path d="M104.88,78.15c2.09,.21,3.96,.19,5.94-.63-1.98,.21-3.96,.42-5.94,.63Z"/>
        <path d="M88.86,80.95c-.15-.03-1.24,.14-.8,.45,.32,.23,1.06,.2,1.38,.22s1.13-.05,.66-.39c-.31-.22-.86-.2-1.25-.28h.01Z"/>
        <path d="M765.74,5.58c5.78-.29,11.43-1.17,17.16-1.53,.45-.03,.89,.05,1.26,.09,.24,.02,.37,.21,.25,.33-.26,.29-.68,.32-.96,.54-.17,.13-.19,.3-.07,.44,.11,.14,.21,.17,.34,.23,.5,.24,1.03,.4,1.56,.55,.91,.27,1.8,.56,2.67,.95,.04,.02,.06,.02,.09,.04,.11,.08,.22,.12,.35,.2s.26,.2,.38,.31c.18,.19,.34,.38,.46,.61h0s-.01,.01-.03,.04c-.12,.16,.16-.33-.16,.16-.32,.49,.01,2.29,1.21,1.07,0,0-.01-.01,0-.01h.03c.66-.18,1.32-.36,1.98-.55-.04-.15-.16-.24-.16-.4h0v-.03s-.27,.17,.17-.11c.58-.38,1.89-1.01,2.66-1.36,0,0-.06-.01,.08-.02,.14,0,.69,0,.89-.05,.38-.09,.52-.34,.8-.58,.91-.89,1.93-1.01,3.11-1.08,1.36,.24,2.73,.28,4.08,.63,2.14,.49,4.07,1.08,5.92-.45,.04-.03,.09-.07,.18-.13,.43-.29,1.96,.12,2.52,.36,2.23,.95,3.86,1.1,5.91-.25,2.03-.73,3.88-1.43,5.46-3.02-.05-.03-.09-.07-.15-.1-1.08,.06-2.39,.22-3.41,.25-.7,.02-.93-.33-1.55-.34t0,0h0c.45-.37,.92-.72,1.24-1.24,.21-.33-.16-.71-.5-.67-2.39,.25-4.11-.6-6.64-.44-4.04,.26-8.71,.76-12.85,1.18-2.32,.23-4.5,.46-6.64,1.28-2.6,1-4.6,.89-7.34,.48-2.97-.44-6.27-.23-9.3-.64-.26,.19-.46,.39-.74,.58-.54-.17-2.15-.46-2.5-.09-1.86,1.96-3.69,1.37-6.08,1.45-3.06,.1-6.37,.46-9.42,1.18,.23,.05,.49,.18,.74,.2,2.3,.19,4.74,.02,7.01-.09v.03Zm43.82-1.12c.61-.2,1.52-.48,2.21-.68,.26-.07,.55-.16,.8-.26,.01,.2,.21,.45,.25,.62,.21,.94-1.06,.09-1.56,.22-.85,.05-1.63,.05-2.3,.7-.12-.44,.15-.45,.6-.6Zm-14.73-.46c-1.09,.56-1.79,1.55-2.8,2.26-.23,.16-.29,.36-.03,.55,.03,.02,.07,.02,.09,.03,.02,0-.04,0-.05,0,0,0,0,.03,0,.02-.5-.27-.32-.51,.08-.79-2.1-1.82,1.47-1.86,2.71-2.07h0Z"/>
        <path d="M867.72,4.01c.54-.59-1.15-.74-1.53-.71-1.01,.08-1.9,.35-2.61,1.22,1.31,.14,3.14,.58,4.14-.51Z"/>
        <path d="M790.23,9.63h0l.02-.02h0l-.02,.02Z"/>
        <path d="M809.79,5.62h0c-.15,.12,.01,.07,0,0Z"/>
        <path d="M956.51,12.51c.14-.03-.05-.07-.07-.07-.01,0,.05,.07,.07,.07Z"/>
        <path d="M961.7,11.92c-.09-.02-.22-.07-.31-.05-.09,.02-.07,.1-.11,.16,.09,.02,.22,.07,.31,.05,.09-.02,.07-.1,.11-.16Z"/>
        <path d="M174.8,131.45s-.02,.02-.02,.03c0-.02,.02-.02,.02-.03h0Z"/>
        <path d="M792.72,9.12s-.33-.06-.37-.03c.07,.06,.4,.25,.37,.03Z"/>
        <polygon points="792.06 6.82 792.05 6.83 792.06 6.83 792.06 6.82"/>
        <path d="M482.18,131.02c-.12,0-.24,0-.37-.02s-.29-.05-.42-.08c.15,.17,.23,.24,.45,.34,.23,.1,.57,.21,.82,.3-.13,.04-.37,.13-.12,.24,.24,.11,.54,.13,.8,.18,.02-.31,.15-.49,.35-.69-.42-.09-.81-.27-1.21-.4-.09,.08-.17,.12-.29,.14h-.01Z"/>
        <path d="M473.65,128.29c.17-.71,.34-1.41,.5-2.12-.88,.62-1.25,1.17-.5,2.12Z"/>
        <path d="M480.25,130.74c-.2,.23-.38,.46-.38,.78s.14,.54,.29,.8c.31-.07,1.04-.14,1.12-.53,.13-.64-.66-.78-1.03-1.05Z"/>
        <path d="M261.22,124.5s.14-.1,.18-.14c-.15,.02-.64,.1-.18,.14Z"/>
        <path d="M122.32,19.05c-.3-.22-.85-.2-1.24-.29-.15-.03-1.23,.13-.79,.45,.32,.23,1.05,.2,1.37,.23,.32,.02,1.13-.05,.66-.39Z"/>
        <path d="M855.9,118.65h-.01c.11,0,.3-.02,.01,0Z"/>
        <path d="M261.49,124.34s-.01,0-.02-.01h-.03s-.04,.02-.03,.03c0,.01,.08,.02,.08,0h0v-.02Z"/>
        <path d="M466.25,130.02c-.04,.2-.09,.39-.13,.59,1.01-.13,1.27-.23,.13-.59Z"/>
        <path d="M798.77,123.12c-.17,.07-.2,.22-.31,.34,.25,.04,.69,.06,.9,.04,.21-.03,.37-.17,.24-.32-.21-.24-.59-.16-.84-.06h.01Z"/>
        <path d="M693.58,128.81c.67,.89,1.75,.69,2.67,.71,.37,0,.86-.03,.82-.49-.61-.61-1.96-.67-2.57-.76-.61-.1-1.27,.07-.92,.54Z"/>
        <path d="M555.54,127.69h.03s-.02,0-.03,0v.02h.05s.01,0,0,0c0,0-.06,.01-.06,0v-.02Z"/>
        <path d="M533.12,129.66c-1.07-.08-2.08-.29-3.04,.29-.2,.12-.08,.32,.1,.38,.98,.34,2.12,.22,3.07,.02,.48-.1,1.3,0,1.06-.59-.39-.03-.83-.08-1.19-.1Z"/>
        <path d="M541.08,128.79c-.58,.07-1.94,.11-1.15,.72,.48,.37,1.59,.14,2.08,.05,.62-.1,1.31-.17,1.08-.89-.55-.16-1.58,.07-2.01,.12Z"/>
        <path d="M369.41,134.39c-.13-.19-.26-.38-.39-.58-1.19,.5-.4,.52,.39,.58Z"/>
        <path d="M219.32,16.64c-2.41,0-4.82,0-7.23,.01,2.43,.19,4.81,.27,7.23-.01Z"/>
        <path d="M229.14,130.96c-5.95-.02-11.89,.54-17.82,.58-.46,0-.84-.07-1.23-.17-.23-.06-.23-.25-.07-.35,.35-.2,.85-.3,1.19-.45,.22-.09,.33-.25,.29-.43-.04-.17-.12-.18-.23-.26-.4-.28-.84-.45-1.29-.63-.77-.31-1.5-.63-2.21-1.09-.03-.02-.03,0-.08-.06-.05-.05-.16-.13-.24-.2-.08-.08-.18-.2-.22-.33-.07-.2-.11-.42-.17-.63,.73-.73,.91-2.37-.39-1.31h0c-.75,.16-1.51,.31-2.26,.46-.03,.13,0,.27-.03,.4h0s0,.02,0,.02c-.03,0,.26-.12-.18,.08-.63,.29-2.48,.94-3.13,1.17-.08,.03-.13,.05-.18,.06h-.04c-.3,.05-.72-.04-.96,.02-.48,.1-.69,.3-1.09,.54-1.14,.7-2.29,.89-3.6,.91-1.25-.3-2.53-.39-3.75-.82-2.19-.61-4.03-.95-6.11,.16h0s-.09,.04-.17,.08c-.5,.22-1.83-.16-2.4-.44-2.25-1.11-3.83-1.04-6.06,0-2.42,.63-4.7,1.31-6.86,2.69,.04,.03,.05,.08,.1,.1,1.09,0,2.48-.09,3.5-.07,.69,0,.8,.33,1.36,.43,.04-.04,.05-.06,0,0h0s0,0-.02,.03c-.21,.26-1.37,.92-1.78,1.1-.26,.12-.2,.71,.14,.69,2.42-.12,3.87,.8,6.47,.75,4.14-.07,9.07-.32,13.36-.54,2.41-.13,4.9-.29,7.14-.93,2.73-.79,4.79-.69,7.51-.13,2.95,.61,6.05,.55,9.03,1.13,.34-.18,.64-.36,1.01-.53,.57,.19,2.04,.52,2.47,.22,2.3-1.58,4.1-1.14,6.67-1.1,3.28,.06,6.73-.14,10.02-.65-.21-.09-.42-.17-.64-.25-2.33-.3-4.72-.27-7.05-.28v.04Zm-44.16-1.12c-.69,.17-1.73,.4-2.52,.56-.29,.06-.63,.14-.92,.21,.08-.17,0-.45,.05-.62,.23-.93,1.03-.02,1.66-.15,.95-.02,1.78-.05,2.63-.58-.1,.49-.38,.44-.89,.57h-.01Zm18.11-.74c1.29,2.05-2.51,1.8-3.67,1.91,1.36-.5,2.52-1.45,3.81-2.08,.3-.15,.47-.22,.32-.55-.02-.04-.07,0-.08-.03,0-.02,.04,0,.04,0,0,0,0-.03,0-.02,.47,.4-.1,.61-.45,.78h.02Z"/>
        <path d="M204.31,126.09c-.08-.09-.31-.24-.35-.05,0,.02,.31,.08,.35,.05Z"/>
        <polygon points="203.52 128.35 203.53 128.34 203.52 128.34 203.52 128.35"/>
        <path d="M223.13,17.26c-.09-.1-.71-.11-.93-.06-.21,.04-.5,.14-.71,.21,.25,.06,.67,.13,.9,.14,.23,0,1.11,.11,.74-.29Z"/>
        <path d="M223.83,16.61c-.18,.01-.39,.1-.56,.15,.32,.2,.87,.12,1.17,.15,.19,.02,.72-.08,.71-.1-.28-.37-.88-.23-1.32-.2Z"/>
        <path d="M214.6,127.04c.91-.15,.82-.17,.43-.87-.84-.32-1.65-.38-2.54-.4,.17,.38-.06,.55,.3,.91s1.35,.43,1.81,.35h0Z"/>
        <path d="M210.41,123.4s.03,.07,.04,.12c.25,.79,.27,3.06,.63,1.94-.81-.04-.05-1.68-.68-2.06h0Z"/>
        <path d="M224.64,122.69c-.84-.13-1.67-.25-2.51-.37-.76,.64-.32,.96,.46,1.09,.87,.14,1.57,.18,2.05-.71h0Z"/>
        <path d="M210.24,123.34c.06,.01,.13,.03,.17,.06-.13-.36-.14-.16-.17-.06Z"/>
        <path d="M210.24,123.34s-.05-.03-.09-.03c.05,.1,.07,.08,.09,.03Z"/>
        <path d="M204.41,126.12s.02,0,0-.01c0,0-.07-.02-.08,0,0,0,.02,.03,.03,.03,0,0,.04,0,.03-.01,0-.01-.03,0-.03,.01s.04,0,.04,0v-.02Z"/>
        <path d="M651.81,127.18c-.11,.75,.64,2.39,1.44,2.47,1.9,.18,.56-1.44,.05-2.49,0-.01-.01-.02-.02-.03-.49,.02-.98,.03-1.48,.05q-.33,.01,0,0h.01Z"/>
        <path d="M149.47,78.86c.19,.08,.74,.18,.8-.09,.07-.26-.25-.29-.47-.32s-.65,.05-.9,.09c.17,.13,.37,.24,.56,.32h0Z"/>
        <path d="M655.45,127.06c-.17,.05-.34,.09-.5,.16,2.04,.07,5.81,.2,7.41,.26,1.05,.04,.03,0,.4,.01s.04,0,.13,0c7.77,.36,16.05,.39,23.67,.45,1.33,.01,2.28,.3,2.72-.54,.54-1.03-1.59-.77-2.35-.84-.26-.03-.62-.04-1-.06-4.87,.11-9.74,.23-14.62,.37-5.3,.15-10.59,.08-15.88,.19h.02Z"/>
        <path d="M825.69,117.81c.12,.09,.73,.07,.93,.03,.23-.05,.42-.18,.63-.25-.28-.05-.71-.1-.96-.1s-1.09-.04-.6,.32Z"/>
        <path d="M10.24,112.82s.06,.03,.08,.03,.06,.01,.07-.01c0-.02-.14-.04-.14-.02h0Z"/>
        <path d="M154.44,78.01c1.23-.02,1.62-.08,2.08-1.17-2.42,.05-4.79,.1-7.2,.16-.06,.02-.48,.31-.32,.38,1.65,.68,3.8,.66,5.43,.63h.01Z"/>
        <path d="M826.45,111.12c.18-.04,.53-.13,.11-.15-.05,0-.09,.11-.11,.15Z"/>
        <path d="M826.37,111.14h.03s.03-.02,.02-.03-.07-.01-.07,.01h0l.02,.02Z"/>
        <path d="M833.85,116.94c-.67,.13-2.07,.18-.34,.55,.83,.18,2.34,.17,3.29,.21,.46-1.5-2.14-.81-2.94-.77h0Z"/>
        <path d="M863.11,110.96c.87,.08,1.75,.16,2.62,.24,.49-.87-.32-1-.98-1.06-.75-.07-1.61-.2-1.64,.82Z"/>
        <path d="M86.58,26.5c-1.51-.21-3.36-.62-4.69,.3-.72,.5,.92,.79,1.34,.77,1.13-.05,2.35-.33,3.35-1.06h0Z"/>
        <path d="M143.07,28.11s.03-.03,.04-.05c.06-.1-.08-.03-.04,.05Z"/>
        <path d="M191.1,79.06c-.09-.1-.71-.11-.92-.06-.21,.04-.5,.14-.71,.21,.25,.06,.67,.13,.9,.14,.23,0,1.11,.11,.74-.29h0Z"/>
        <path d="M164.35,25.12s.02,0,.03-.01h-.03Z"/>
        <path d="M921.26,47.9v0s0,0,0,0h0Z"/>
        <path d="M182.55,79.53c.54-.07,2.29-.03,.61-.52-.81-.24-2.26-.28-3.19-.37-1.15,1.42,1.84,.9,2.58,.9h0Z"/>
        <path d="M159.14,76.84c-.74,.49-1.01,1.13-1.84,1.56-.26,.13,.07,.47,.38,.5,.18,.02,.86,.11,.99,.07,2.54-.84,5.05-1.03,7.55-1.82,0,0,.05,.01,.02,0-1.45-.54-3.35-.41-4.74-.37h-.22c-.11,0-.04,0,.02,0h-.15c-.52,.01-1.43,.05-2.02,.06h0Z"/>
        <path d="M134.54,13.1s-.02,0-.03,.01h.03Z"/>
        <path d="M249.17,15.13h-.05s.08,.01,.05,0Z"/>
        <path d="M836.18,101.67c.09-.02,.32-.07,.07-.08-.03,0-.06,.05-.07,.08Z"/>
        <path d="M247.26,16.34s.02,0,.03-.01h0s-.02,0-.03,.01h0Z"/>
        <path d="M247.27,16.33s.02,0,.04-.01c0,0,0,0-.03,.01h0Z"/>
        <path d="M101.02,106.33c-.64-.02,.29,.02,0,0h0Z"/>
        <polygon points="881.03 104.32 881.02 104.33 881.03 104.33 881.03 104.32"/>
        <path d="M987.25,89c-7.55-.07-14.97,.12-22.5,.21-12.7,.15-25.3,.43-38,.46-17.72,.04-35.43,.2-53.15,.29,.16-.04,.3-.11,.45-.18,5.73-.51,11.43-1.35,17.17-1.78-2.17-.28-4.28,.2-6.29-.89-3.9-.02-7.8-.1-11.69-.04,.5-.04,.98-.02,1.4-.33-.4,0-.77,.01-1.15-.14,1.5-.09,2.87-.19,4.2-.99-3.96,.42-7.88,.62-11.85,.43,2.56-.65,5.19-.63,7.78-1.03-3.39-.18-6.78-.32-10.17-.36-.06-.58-1.1-.62-1.52-.8,1.64-.29,3.29-.38,4.95-.5-.36-.04-1.67-.15-.84-.61,1.19,.03,2.36-.07,3.53-.2-.43,.42-.79,.61-.05,.88,2.31-.8,4.45-1.14,6.87-.83-.09-.11-.19-.2-.29-.28,5.27,.15,10.5-.18,15.78,.13,.55,.03,1.24-.03,1.81-.1,1.71-.19,3.4-.19,5.12-.22,.07,0,.15-.04,.18-.15,.03-.11-.16-.22-.26-.24-2.2-.27-4.4-.33-6.61-.35-.46,.06-.9,.18-1.34,.33,.39-.26,.83-.27,1.25-.47,.59-.09,2.61,.07,2.58-.84-.01-.31-.87-.31-1.08-.34,4.49-.03,9.02-.04,13.53-.07,1.51-.05,3.85,.26,3.97-1.83,.03-.42-.17-.55-.3-.92-.06-.18-.46-.19-.61-.22,.38-.99-1.75-.63-2.49-.64-.46,0-1.58-.04-2.15-.04,1.7-.02,3.44-.09,5.15-.24,.26-.1,.63-.18,.65-.53,7.51-.58,15.03-1.03,22.56-1.27,2.92-2.44,6.31-1.69,9.76-1.32,1.52-.58,3.13-.56,4.63-1.22-1.82-.09-3.59-.03-5.36-.55-.34-.56-.68-.9-.05-1.36,4.22-.06,8.41,.09,12.61-.41-3.7-.23-7.38-.68-11.08-.82,.15-.49,.12-1.07-.46-1.11-.19,1.38-2.02,1.13-3.02,1.34-1.16-.12-2.1-.35-3.02-1.16,2.22-.84,4.52-1.34,6.79-2.04-1.22-.91-2.39-.86-3.81-.65-4.88-.24-9.58-.1-14.48,.33-4.9,.43-10,.92-14.93,1.01-1.04,.02-1.28-.42-2.46-.3-5.18,.53-10.69,.98-16,.56,.51-.04,1.07-.09,1.58-.19-.73,.07-1.74,.03-2.39-.02-.38-.03-.13-.01-.22-.02-.08,0-.19-.01-.37-.03-.95-.07-2.01-.16-3.09-.21,.19-.02,.25-.06,.14-.1-.26-.09-.97-.13-2-.13-1.85-.1-.08-.12,.46-.17h0c.5-.02,1.47-.02,1.26-.07-.57-.14-.25-.35-2.92-.35-1.3,0-2.44-.06-3.56-.12-.2-.02-.3-.04-.35-.06,.08,.02,.19,.04,.35,.06-.27-.12,.31-.15,1.47-.12,.51,.01,1.3,.05,1.43-.02,.17-.09-.78-.09-1.48-.09h-.02c-.41-.06-.28-.09,.46-.11,.67-.02,1.47,0,1.99-.05h0c.89-.04,1.78-.07,2.66-.11-.53-.1-2.33-.11-1.56-.24,.39-.07,1.46-.04,2.01,0,2.6,.16,1.7-.09,2.1-.16,.31-.05-.53-.13-.31-.21,1.59-.2,1.08-.28-2.01-.31v-.09c.34,0,.67-.03,1.01-.04-.05,0-.09,0-.14,0h.14c.84,0,1.78,.05,2.52-.03,1.19-.12-.05-.16-.93-.2-1.13-.05-2.34-.09-3.52-.13h0s-.03-.1,.61-.1c1.58,0,3.12-.06,4.7-.02,.91,.14,2.63,.03,3.74,.11,1,.07,1.95,.11,2.77-.02,.77-.12,.45-.39-.64-.43-2.07-.08-4.08-.17-6.32-.21-4.22-.08-7.46-.37-11.68-.45h0c-.44-.05-.77-.11-1.15-.16,.51-.02,1-.08,1.42-.14,.08,0,.12-.02,.17-.02h.16c1.21,0,2.77,.2,4.05,0,2.97-.04,5.93-.14,8.88,0,.79,.03,1.45-.02,2.2-.27,0-.03-.09-.13-.11-.13-.42-.02,.1-.03,.48-.03h2.06c-.53,.02-1.08,.06-1.62,.17,.95,.26,1.77,.29,2.77,.29,3.6-.03,7.37-.1,10.96,.03,5.06,.19,10.02-.14,15.07,.19,.51,.03,1.16-.03,1.69-.09,1.61-.19,3.2-.18,4.81-.21,.07,0,.14-.04,.17-.15,.02-.11-.15-.22-.25-.24-2.07-.28-4.13-.34-6.21-.37-.43,.06-.85,.18-1.26,.33,.36-.26,.78-.27,1.17-.47,.57-.1,2.45,.06,2.42-.83-.01-.31-.81-.31-1.02-.34,4.22-.02,8.48-.03,12.72-.05,1.49-.05,3.62,.22,3.73-1.83,.02-.41-.16-.56-.28-.92-.06-.18-.43-.19-.58-.22,.36-.99-1.64-.64-2.35-.64-.45,0-1.49-.04-2.04-.05,1.6-.02,3.24-.08,4.86-.23,1.09-.67-.03-.9-.72-1.07-7.09-.03-14.18,.05-21.26,.16-5.07,.08-10.09,.17-15.15,.22-1-.06-1.94-.07-2.98,.03-5.62,.07-11.79,.11-17.29,.11-1,0-1.97,0-2.95,0,0,0-.01,0-.02,0h0c1.19-.09,1.44-.19-.12-.27,0,0-.03-.02-.06-.03-.33-.04-.67-.07-1-.11h0c.38,0,.76-.03,1.14-.03,.9,0,2.07,0,2.05-.1s-1.07-.14-2.16-.13c-.65-.03-1.29-.05-1.94-.08-.36-.05-1.9-.12,.21-.14,1.73-.02,3.45-.07,5.12,.02,.89,.06,2.09,0,3,.06,.88,.06,1.82,.11,2.63,0,.75-.11,.54-.41-.44-.44-1.72-.05-3.32-.14-5.06-.18,1.62-.17,3.15-.38,4.25-.53,1.37-.18,.77-.1,.62-.08,1.45-.06,3.25-.19,4.76-.31,4.98-.39,10.11-1.14,15-1.63,5.27-.53,10.27-1.16,15.48-1.51,.69-.05,1-.18,1.57-.56-1.99,.07-4.04-.04-6,.09-7.48,.47-14.86,.94-22.31,2.05-2.88,.43-5.92,.23-8.7,1.42-.59,.04-1.09,.11-1.7,.12-3.35,.06-6.81,.44-10.17,.7-.62-.03-1.24-.07-1.83-.11-.39-.02-.88-.05-1.33-.05-1.71,0-2.82-.1-3.88-.2h0c-.22-.09-.9-.15-1.86-.17h0c-1.67-.33-5.09-.44-8.35-.58-.15,0-.29-.02-.44-.02,1.3-.09,2.6-.18,3.89-.27,.65,.18,1.17,.37,1.56,0,.57,.02,1.14,.05,1.68,.08,1.39,.12,2.85,.23,4.13,.36,.57,.06,1.02,.09,1.82,.06,.85-.04,1.01-.09,.36-.15-.66-.07-.11-.08,.58-.09h0c.61,.03,1.22,.06,1.83,.09h0c.35,.08,.71,.16,1.06,.24,.22,.05,.6,.11,1.21,.07,.88-.06,2.44-.02,2.71-.15,.04-.02,.02-.04-.05-.05,.29-.05,.58-.13,.88-.25,.39,0,.82,0,1.29,0-.18-.02-.38-.04-.56-.05,.42-.02,.91-.06,1.18-.11,.06,0-.02-.02,.04,0s-.12-.06,.07,.03c.15,.07,.55,.18,.75,0-.03-.03,.04-.21,.5-.67,1.06-1.06,4.99-1.65,6.62-.29,.07-.06,.08-.08,.08-.09h.03s.08,0,.13-.02c.85-.13,2.17-.42,3.01-.97,1.17,.08,2.39,.29,3.53,.09s1.63-1.41,2.56-1.85c.62-.29,.58,.08,1.11,.26,.56,1.54,2.63,1.13,3.59,1.04,1.28-.12,1.8-.25,1.42-1.42,.06,0-.51,.09,.13-.03s-1.02,.18,.74-.14c1.83-.34,7.32-1.17,9.9-1.09,.83,.05,1.05,.36,1.58,.79,0-.02,0-.03,0,0h0s0,.07-.02,.17c0,0,1.94,.76,2.58,.05,.01-.02,.05,.05,.07,.06,.33,.1,.65,.24,.97,.36,.55-.05,1-.1,1.39-.55,.27-.14,.52-.21,.67-.5-.05,0-.2,0,.09,0,.38,.02-.66-.04,.44,0s4.86,.28,6.44-.56c1.12-.6,2.37-.58,3.56-.68,.94-.08,1.76-.06,2.58-.63-.02,0-.05-.03-.11-.06-.34-.19-1.43-.33-1.84-.28-.91,.1-1.5,.19-1.72-.84-.81-.54-1.16-.8-2.21-.59-1.8,.37-3.76,.94-5.58,.23h0s-.05-.09-.1-.19c-.32-.62-1.13-1.06,.63-.96,.84,.05,2.31-.38,3.13-.92-2.66-.59-5.16-.55-7.81,.2-.02,0-.05-.02-.11-.04-.27-.11-1.49-.43-1.46-1.1,.7-.1,1.55-.2,2.26-.29,2.25-.27,4.43-.49,6.66-.72-.05,.12-.12,.23-.17,.35,.9,.2,2.01,.54,2.59-.42,.31-.52-.67-.74-.99-.74-.09,0-.26-.02-.36,0,.94-.87,2.09-.35,3.21-.28,.41-1.17,2.14-.35,3.03-.43,2.19-.2,4.41-.84,6.55-1.43-1.66-.21-3.29,.06-4.95,.1,0-.52,.1-.81,.5-1.11,.73,.15,1.25,.09,1.46-.77-1.23,.14-2.39,.06-3.6-.21,1.62-.88,3.15-1.25,4.94-.8,1.41-.7,2.85-.86,4.38-1.05,.57-1.47,1.77-1.12,3.01-1.04,.36-.78,.68-1.44,1.42-1.86-.48-.06-.96,0-1.44-.12,.37-1.3,.89-1.81,2.09-2.12-.08,.24-.21,.46-.31,.7,.97-.26,1.79-.55,2.52-1.32,.71,.11,.99-.19,1.73-.31,1.17-.18,2.45-.03,3.42-1.03-.11-.02-.24-.04-.37-.05,.01-.02,.02-.03,.03-.05-.1,0-.21,0-.31,.01,0,0,.02,.01,.01,.01-.73-.04-1.3-.12-1.89-.61,.06-.02,.11-.04,.18-.04,.01,0-.02,.07,.02,.07,.03,0,.09-.09,.14-.09,.47-.01,.88,.11,1.24-.29-.21-.04-.42-.07-.64-.09,.44-.03,.88-.05,1.32-.07-.01,0-.02,.02-.03,.03,.14,.03,.29,.06,.43,.09,0-.04-.02-.08-.02-.13,1.37-.01,2.77-.03,4.13-.06,.76-.02,1.43-.06,2.14-.32,2.26-.17,4.29-.28,6.61-.37,2.09-.08,4.46-.31,6.57-.72-4.27,.04-8.69,.06-12.92,.05-.49,0-.93-.02-1.17-.09t-.05-.01s.01,0,0,0h.05c.11,0,.67,0,.59-.38,.81,.08,1.41,.12,2.24,0,.73-.12,1.54-.13,2.35-.15,.56-.02,1.08,.07,1.64-.31,.36-.24,.9-.16,1.36-.17,1.04-.02,2.13-.02,3.16-.26,2.04-.06,4.07-.11,6.1-.17-6.64-.28-13.28,.11-19.91-.34,8.01-.44,16.04-.63,24.06-.85-1.04-.33-2.04-.55-3.14-.59-3.73-.13-7.48-.19-11.22-.31-.68-.44-1.39-.41-2.16-.47,3.58-.13,7.15,0,10.73-.3-1.91-.03-3.81-.15-5.72-.11,.61-.21,1.25-.19,1.87-.3-.4-.19-.92,0-1.29-.2-.16-.08-.04-.09,.19-.1,1.83-.05,3.83-.12,5.71-.18h.04s.03,0,.14-.01c.16-.03,3.02-.46,3.02-.46,0,0,.05-.09,.09-.05-.03-.01-.09,.05-.09,.05,0,0,3.46-.09,3.64-.1-.72-.33-1.98-.32-2.81-.29-.58,.02-1.39-.05-1.77-.06-.78-.03-1.36-.18-.75-.77,.73-.72,.46-.81-.23-1.26-.18-.89-.33-.53-1.39-.56-1.43-.04-3.82-.18-5.4-.23-.39-.01-.97,.06-1.11-.24-.23-.49,.68-.35,.94-.4,.11-.02,.41-.05,.35-.29-2.2-.46-4.46-.6-6.67-.68-.05,0-.13-.02-.24-.03-.91-.12-2.55-.25-3.64,.04-.57,.15-1.24,.19-1.83,.14-.02,0,.01,.02-.01,0-.03-.03,.05,.05-.03-.05-.08-.09-.21,.06-.05,.26,0,0,.02-.01,.02,0,.04,.12,.08,.23,.07,.35-.01,0,.12-.02-.07,.02s-.75-.02-.98-.17c-.17,.18-.26,.22-.4,0,0-.02,0-.04-.01-.08-.03-.15-.18-.59-.42-.6-.75,.31-1.45,.27-2.23,.15,0-.03,.05,.15-.03-.09-.08-.23-.2-.95-.21-1.28-.29-.1-1.1,.11-.94,.49,.23,.56-.11,.45-.07,.91h-.02c-.07-.04,.11,.04-.08-.05-.25-.12-.9-.48-1.23-.11-.09,0-.23-.03-.3-.04-.28-.02-.46,.16-.72,.2-.11-.18-.21-.13-.39-.17-.1-.02-.21-.12-.34-.13-.82-.04-1.65-.08-2.46-.23-.49,.34-.83,.52-1.28,.04-.77-.81-1.33-.36-2.25-.19-.96-.28-1.9-.63-2.87-.89-.3-.08-.61-.06-.91-.08-.3-.02-.54,.02-.84,0-.11-.01-.23-.14-.35-.15-4.02-.19-7.88-.24-11.97-.28h-2.14c-7.91-.05-14.11-.08-22.45-.24-12.26-.23-26.3-.35-38.9-.42,.23-.08,.72-.17,1-.45-.02-.01-.05-.03-.1-.06-.37-.2-1.53-.33-1.95-.29-.93,.09-1.62,.23-1.79-.85-.91-.55-1.16-.81-2.34-.59-2.03,.38-4.28,.84-6.39,.24h-.02c-.03-.05-.08-.12-.15-.22-.59-.81-1.9-1.05,.93-.94,1.35,.05,3.54-.46,4.95-1-3.82-.49-7.51-.47-11.31,.34,.02,0,.11,.05-.04-.02s.15,.09-.23-.1-1.61-1.03-1.99-1.5c-.09-.02,.54,0-.39-.03-1.32-.05-3.61,.37-5.34,.35-1.27-.02-3.26-1.13-4.25,.28,.01,.04-.06,.15-.38,.39-.79,.57-3.46,.39-4.74,1.23-.02,.01-1.23,.08-1.35,.03-2.17-.87-2.28-.37-4.17,.49,0,0,.14-.03-.03,0-.18,.04,.32-.09-.21,.03-.76,.18-3.18,.84-4.05,.25-1.49-1.01-2.48-.77-4.04-.68s-3.03,.2-4.57,.32c-2.17,.15,1.64,.94-1.47,.7-2.75-.21-5.48-.42-8.21,.31,.02-.02,.07,.05,.05,.04-.44-.22-2.03-.75-2.37-.54-1.96,1.24-4.78,1.01-6.52,1.1-1.28,.07-1.8,.01-2.07,.91v.04c.13-.06,.44-.21-.38,.24-1.3,.71-3.43-.18-5.3-.21-19.15-.26-38.52-.08-57.71-.08-2.16,0-4.41-.03-6.55-.02,.34-.21,.43-.42,.28-.81-.36-.22-.72-.36-1.14-.47-.25,.05-2.29,.18-1.37-.5,.68-.5,2.12-.2,2.81-.98h.03c1.14,.07,2.74,.44,3.73-.17s.85-1.14-.25-1.66c-1.73-.82-3.97-1.17-6.04-1.25-1.21-.04-3.86-.62-4.15,1.29-.07,.47-1.29,.29-1.78,.24-2.89-.35-5.17-.78-7.77,1.23-1.9,1.47-4.1,1.5-6.58,1.76-1.96,.2-4.36,.22-6.52,.35-4.26,.24-8.71,.41-13,.85-18-.06-36-.2-54.01-.16-2.08,0-4.13-.04-6.2,.2-1.71,.2-3.43,.14-5.15,.13-7.06-.04-14.11-.23-21.17-.1h-.06c-7.48-.12-14.87-.05-22.33-.12-35.7-.33-71.35-.84-107.01-1.32-11.66-.16-23.31-.25-34.96-.5-3.08-.44-5.79-1.49-8.68,0-.07,.05-.19,.11-.41,.21-.89,.42-2.62-.27-4.06-.29-28.97-.35-58.13-.46-87.15-.61-2.24-.01-4.48,.05-6.71-.03-.41-.07-.81-.02-1.22,0-.96,.03-1.94,.03-2.9,.02-4.74-.05-9.49-.52-14.22-.32-7.6,.32-15.22,.25-22.81,.25-2.33,0-4.48,.03-6.76,.51-5.55,.29-11.07-.77-16.38,1.48-.01,0-.02-.01-.04-.03-.16-.09,.26,.11-.18-.11-.6-.3-2.15-.07-2.73,.72-.07-.02,.17-.06-.16,.01-.34,.07-1.31,.24-1.78,.3-16.64,.01-33.27,.04-49.91,.05-2.22,0-4.44-.04-6.66-.07-.41-.09-.8-.02-1.21,0-.95,.03-1.92,.03-2.88,.02-4.72-.04-9.44-.61-14.16-.35-7.58,.42-15.17,.3-22.74,.32-2.33,0-4.46,.03-6.72,.6-5.52,.39-11.03-.8-16.24,1.75h-.05c-.16,0,.26,0-.2,0-.46,.01-2.08,.16-2.65,.65,.02,0,.03,0,0,0,0,0-.02,.01-.02,.02,0,0,0,0,0,0-.04,.01-.12,.03-.25,.07-.76,.21-2.48,.54-3.39,.68-.62,.09-.86,.14-1.18,.63,0-.01,0-.02,0,0h0s0,.05-.03,.12c-.06,.29,.11-.59-.13,.39-.34,1.37-.98,1.47,2.15,1.05,3.29-.45,7.75-.09,11.37-.14,2.75-.04,5.69,.05,8.46,0-.22,.03-.56,.07-.73,.08h-.47c-1.55,.01-4.12,.02-6.27,.06-7.05,.14-14.34,.62-21.51,.85-7.74,.25-15.64,.58-23.37,.67-1.02,.01-1.7,.13-2.63,.45,2.93,.04,6.02,.26,8.92,.24,11.02-.06,21.97-.1,32.96-.87,2.98-.21,6.04-.07,9.03-.27,3.76-.04,7.52-.05,11.27-.06-.12,.05-.23,.11-.29,.2-.07-.04,0,0-.06-.03,0,0-.03-.01-.06-.03-.24-.12-.65-.16-.94-.02,.07,0-.02,.1-.79,.48-1.84,.91-6.64,1.23-9.03,.12-.07,.03-.11,.05-.12,.06h-.02c-.05,0-.11,0-.19,.01-1.29,.09-3.18,.32-4.55,.81-1.56-.14-3.27-.4-4.79-.27-1.63,.14-3.05,1.34-4.47,1.69-.94,.24-.68-.04-1.43-.32-.32-1.88-3.61-1.24-4.61-1.21-1.32,.04-2.81-.15-2.67,1.33-.08,0,.63-.05-.17,.02s1.34-.11-.69,.06c-3.94,.32-10.95,.7-15.6,.61-.87-.11-1.2-.38-1.76-.88,0,0,0-.02-.02-.04-.08-.13,.19,.2-.05-.12-.52-.7-2.69-.46-3.59-.21-.02,0-.07-.03-.09-.04-.41-.13-.83-.27-1.24-.41-.83,.03-1.59,.07-2.35,.47-.44,.11-.89,.18-1.26,.45-.03,0-.07-.02-.12-.03-.48-.12,.78,.16-.53-.14-1.8-.42-6.51-.79-8.81,.36-1.66,.4-3.2,.43-4.8,.44-1.27,.01-2.35,.03-3.55,.47,.02,.02,.05,.04,.11,.07,.36,.24,1.69,.4,2.09,.38,.88-.05,2.01-.23,1.63,.92,.93,.72,1.1,.87,2.43,.69,2.29-.3,4.97-.8,7.31,.09,.02,.01,.02,0,.02-.01,.02,.06,.04,.14,.08,.27,.28,.88,1.24,1.15-1.55,.85-1.32-.15-4.16,.31-5.69,.72,4.05,.58,8.18,.42,12.29,.25-.02-.04-.05-.12,.02,.05,.08,.17-.06-.15,.12,.25,.22,.49,.6,1.68,1.45,1.39,.1,.06-.65,.01,.45,.05,1.26,.04,3.94-.21,5.71-.06,1.33,.11,3.46,1.34,4.58-.04,0-.05,.1-.17,.42-.41,.87-.64,4.15-.65,5.71-.94,.02,0,1.3-.02,1.41,.03,1.9,.9,2.82,.28,4.63-.26h.04c.19-.04-.33,.09,.21-.02,.77-.16,3.57-.8,4.35-.05,1.34,1.28,2.29,.89,3.85,.87,1.56-.01,3.16-.04,4.69-.09,1.55,.01-.62-.94,1.98-.6,2.3,.31,5.64,.66,8.16,.08,.02,0-.04-.05,0-.04,.44,.22,1.76,.8,2.13,.64,2.18-.97,5.06-.73,6.97-.76,1.41-.02,1.78,.09,2.51-.8-.08-.02-.03-.02,0-.03,1.41-.8,2.75-.74,4.34-.81,.48-.02,.95-.02,1.52-.21,2.85-.96,1.09-1.36-.5-1.61-1.28-.2-6.07,.89-5.25-1.62,1.81,.46,3.65,.49,5.45,.13,.66-.13,1.85-.41,2.27-.49,3.01,.14,5.72-.29,8.64-.14-2.03-1.12-3.74-1.39-6.18-1.44-.31,0-1.93,1.06-2.46,1.1-.09,.02,.17,.09-.17-.02-.46-.14-1.06-.34-1.34-1.05-.24-.62-.65-.97-1.12-1.16,2.12,0,4.24-.01,6.36-.03,3.87-.04,7.76-.07,11.64-.08,.04,.02,.09,.04,.14,.05,.29,.08,.56,.12,.83-.06h7.07c.1,.04,.19,.07,.29,.1,.29,.08,.79,.13,1.03,.07,.24-.05,.23-.12,.42-.17h13c1.33,0,3.1-.02,4.49-.28-5.43-.1-10.9-.04-16.34-.06,1.81-.35,3.64-.58,5.43-1.06,4.51,0,9.01-.01,13.51-.02-.61,.08-1.18,.2-1.75,.46,11.39,.3,22.78,.59,34.17,.9-.02,.05,0,.1-.04,.15-.9,.15-2.11,.37-2.93,.5-.69,.11-.8,.08-1.23,.55,.02,0,.02-.01,0,0,0,0,.04-.04,0,0-.04,.05,.06-.04-.04,.06-.15,.15-1.47,.64-1.17,.97-5.59,0-11.12-.15-16.72-.26-3.93-.08-7.92-.12-11.85-.61-1.18,.03-2.42,.1-3.55,0-.09-.02-.21-.04-.42-.08-1.28-.24-4.2-.4-5.81-.19-.06-.01-.04,0-.06-.01s0,0,0,0c-.3,.01-.59,.05-.89,0-.47-.07-1.03-.43-1.41,0h0c-5.27,.09-10.54,.19-15.81,.28-1.01-.29-1.65-.34-2.46,.41-.03,0-.06,.01-.13,.02-.42,.07-1.74-.16-2.02,.36-.03,.05,1.33,.42,1.54,.34,10.52,.53,20.95,.24,31.46,.65,13.25,.51,26.51,1.01,39.79,1.13,6.57,.06,13.23,.7,19.79-.04,.15,.02,.25,.04,.39,.06,4.66,.58,8.86,.8,13.65,.3,3.1-.32,6.91-.06,10.05,.05,.92,.03,.47,.16,.3,.66-2-.07-3.79-.29-5.81-.19-7.1,.35-14.26,.66-21.39,.88-8.82,.26-17.67,.08-26.49,0-4.28-.04-8.54-.38-12.82-.16-.37,.02-.73,.08-1.1,.06h0c-1.35-.38-2.54-.35-3.94-.34-1.94,.01-3.87,0-5.81-.04,.86,.15,1.67,.44,2.37,.96,.08,0,.06,0,.06,0h.02c.11,.12,.12,.26,.13,.43,1.38,.55,2.35,1.28,3.84,.79h0c1.27,.55,2.34,.4,3.62,0h.02c.8,.39,1.53,.06,2.35-.1,0,0-.04,0,0,0,.06,0-.1-.01,.07,0,.16,.02,.76,.07,1,.04,0,0-.1-.04,.1,.03,.2,.07,1.08,.32,1.26,.35h.06s0,0,0,0c0,.01-.03,.03-.03,.04-1.36-.04-2.71-.1-4.07-.17-.31,.47-.7,.57-1.23,.68-2.46-.52-5.56-.42-7.9-.25-2.33,.16-3.57,.42-5.42-.96-.83,.19-1.49,.71-2.24,1.14-4.96,.1-9.89,.22-14.83-.23-3.17,.42-6.34,.73-9.52,1.07,.5-.38,1.1-.45,1.65-.7-4.11,.24-8.16,.32-12.25-.15-.96,.83-2.13,1.09-3.23,1.64,2.88,.04,5.61,.2,8.37,1.13-1.49-.03-2.95-.25-4.44-.11,5.02,.44,9.98,.01,15-.34-.1,.31-.29,.49-.54,.67-7.53,.21-15.04,.42-22.39,.67-.27-.13-.54-.25-.82-.36-.77-.31-1.51-.63-2.22-1.08-.03-.02-.03,0-.08-.06-.05-.05-.16-.13-.24-.2-.08-.08-.18-.2-.22-.33-.07-.19-.12-.4-.16-.59,.05-.02,.12-.06,.24-.14,.55-.38,.75-1.9-.65-1.2h0c-.75,.16-1.5,.31-2.26,.46-.03,.13,0,.27-.03,.4h0s0,.02,0,.02c-.02,0,.24-.11-.16,.07-.68,.31-2.47,.93-3.15,1.17-.08,.03-.13,.05-.18,.06h-.04c-.3,.05-.72-.04-.96,.02-.48,.1-.69,.3-1.09,.54-1.14,.7-2.29,.89-3.6,.91-1.25-.3-2.52-.39-3.75-.82-2.08-.7-4.43-1.93-6.05,.11-.02,.04-.08,.11-.2,.22-.4,.38-1.9-.24-2.45-.53-2.19-1.19-3.82-1.05-6.02-.05-2.42,.64-4.71,1.32-6.86,2.69,.04,.03,.05,.08,.1,.11,1.09,0,2.48-.09,3.5-.08,.49,0,.69,.18,.97,.3-1.21,.09-2.3,.18-2.65,.32-.37,.04-.75,.08-1.12,.12h0c-4.89-.08-8.83,.03-11.33,.45h0c-1.47,.1-2.11,.27-3.27,.39-1.11,.14-2.47,.27-3.26,.43-1.03,.2-2.94,.39-2.15,.64h0c-3.91,.18-5.38,.54-3.72,.89,.18,.04,.18,.08,.26,.13h0c-.94,0-1.77,.07-2.76,.05v.13c.69,0,.9,.06,1.35,.09,.2,.06,.51,.11,.59,.17,.23,.15,1.67,.29,1.23,.44-.43,.15-.23,.26,.66,.37-.38,.07-1.39,.15-.04,.22h0c3.24,.25,3.34,.34,.59,.52-1.72,.13-1.17,.27-.09,.41h0c.2,.14-.12,.3,1.54,.39h0c.16,0,.31,.03,.47,.04h0s0,.06-.13,.06c-3.27,.16-4.03,.34-2.79,.7h0c.35,.13,1.55,.21,2.35,.31h0c.17,.08,1.45,.16-.2,.24-2.12,.1-2.3,.3-.67,.51h.01c.14,0,.22,.02,.28,.03-.09,0-.19-.02-.28-.03,.62,.11-.99,.13-1.19,.2,.3,.05,.78,.06,1.27,.06,.56,0,1.15,0,1.66,0,1.23,.03,.95,.1-.89,.22h-1.7c-.88,0-1.99-.02-2.29,.07-.28,.09,.84,.12,1.48,.15,1.44,.08,1.33,.17,.19,.26-2.97,.21-2.97,.24-.15,.41,.23,0,.32,.05,.47,.07-.64,.19-1.82,.37-.8,.58,.15,0,.21,.02,.24,.04-.08,0-.16-.02-.24-.04-.23,.08,.21,.15,.63,.22,.84,.15,1.81,.3,.75,.48-.64,0-1.15,.04-1.37,.09-.82,.15-1.69,.29,.16,.43,1.81,.13,1.53,.25-.09,.37-.41,0-1.17-.03-1.12,.03,.06,.07,.81,.1,1.6,.1h0c3,.17,3.21,.21,1.82,.4h-1.42c-.9,.04-2.62-.05-2.68,.06s1.76,.08,2.72,.11c.12,.04,.74,.09,.13,.11-1.65,.06-.84,.12-.1,.18,.46,.04,.95,.08,1.42,.11,.01,.21,1.61,.27,3.42,.31h-.02c.96,.07,.8,.19,1.49,.27,.35,.07,.64,.14,.46,.22-.85,.1-.01,.16,.72,.19,2.46,.1,2.1,.26,1.32,.44h0c-.33,.06-1.29,0-1.59,.07h0c-.98,.11-.93,.22,.03,.33,.57,.13,0,.3,1.42,.41h0c.3,.03,.61,.05,.91,.08h0s.04,.04-.03,.04c-3.43,.19-4.26,.41-2.78,.75h0c.13,.02,.25,.03,.38,.05h0c.29,.07,.91,.12,1.51,.17h0c-.15,.09,1.95,.15,.33,.26-2.27,.15-2.5,.31-.83,.54h0c.67,.12-1.12,.12-1.18,.22,.38,0,.74,.02,1.11,.03,.87,.02,2.35-.05,2.44,.07,.1,.12-1.51,.12-2.52,.16h-.72c-.87,0-1.97-.03-2.3,.07-.3,.09,.75,.12,1.4,.15,1.4,.07,1.55,.15,.34,.25-.28,0-.62,.02-.83,.04-2.04,.2-2.05,.2,.34,.36,.6,.04,.48,.09,.49,.14-1.04,.22-1.3,.44-.38,.66h0c1.01,.18,2.53,.36,1.01,.58h0c-.77,.04-1.82,.06-1.6,.17-1.1,.18-.22,.3,1.45,.4,.62,.1,.51,.19-.39,.27-.63,0-1.53-.02-1.64,.05-.14,.09,.73,.11,1.57,.12h0c1.23,.06,2.42,.13,2.85,.26h0c-1.15,.21-3.76,.11-5.82,.21,1.29,.06,2.33,.09,3.44,.1h0c.15,.03,.66,.08,.3,.1-2.23,.1-.69,.15,.25,.21h0c.54,.22,1.92,.35,4.36,.4,1.13,.07,1.96,.17,2.63,.28s1.28,.22,2.73,.25h.38c1.06,.03,2.19,.05,3.18,.09,2.83,.13,5.65,.25,8.88,.26,.78,0,1.63,.03,1.64,.13h-.02c-.62,0-1.25,.02-1.86,.04-.68,.02-1.98,0-1.63,.1,.26,.07,1.42,.04,2.14,0,1.22-.04,2.45-.07,3.7-.07-1.13,.05-2.25,.09-3.39,.14-14.08,.63-28.39,1.12-42.53,.83-3.44,1.88-6.7,1.34-10.38,.79-1.71,.47-3.49,.43-5.19,.96,1.73,.17,3.43,.16,5.08,.82,.07,.74,.08,1.02-.59,1.34-4.26-.16-8.5-.51-12.76-.25,3.56,.41,7.09,1.05,10.65,1.38-.26,.33-.72,1.03-.07,1.11,.79-1.29,2.37-.98,3.64-1.16,1.03,.16,1.85,.33,2.47,1.3-2.55,.7-5.15,1.09-7.73,1.66,.95,1.15,2.18,.98,3.49,.84,4.94,.5,9.62,.59,14.63,.41,5.01-.18,10.31-.41,15.35-.23,1.04,.04,1.12,.48,2.32,.42,5.24-.25,10.85-.49,16.18,.26-.53,0-1.1,.04-1.62,.11,.71-.03,1.68,.06,2.31,.14,.39,.05,.08,.02,.22,.04h.03c.07,0,.16,.02,.3,.04,2.63,.33,5.9,.79,8.69,.1-2.14,.03-4.32-.11-6.47-.28,2.38,.05,4.76,.15,7.13,.27,.99-.74,2.04-.69,3.2-.66-.29,.32-.16,.54,0,.9-1.26,.07-2.49,.17-3.73,.43,.21,.05,.42,.09,.63,.14-1.75-.01-3.51-.04-5.26-.06-.4-.08-.8-.02-1.2-.01-.95,.03-1.92,.03-2.87,.02-4.7-.05-9.4-.5-14.1-.29-7.54,.33-15.1,.25-22.62,.25-2.31,0-4.44,.02-6.7,.5-5.5,.29-10.97-.78-16.22,1.47h0s-.02-.01-.04-.02c-.15-.09,.25,.11-.16-.1-.64-.33-2.07-.03-2.7,.68-.04,0-.12,.02-.27,.05-.74,.13-2.49,.44-3.37,.58-.6,.09-.84,.08-1.19,.54,0-.01,0-.02,0,0h0s0,.04-.02,.1c-.05,.26,.08-.55-.11,.34-.29,1.3-.9,1.24,2.15,.87,3.21-.39,7.73-.09,11.33-.13,3.68-.04,7.6,.04,11.31,0,.01,.09,.01,.17,.02,.25-3.14,.15-6.28,.29-9.41,.44,.42,.17,.97,.35,1.4,.34,7.78-.06,15.5-.07,23.27-.11,11.4-.06,22.75-.04,34.21-.03,1.29,0,3.16-.03,4.51-.25-9.22-.13-18.48,.15-27.71-.45-.25-.02-.58,.05-.83,.1-1.8,.32-3.4,.41-5.16-.12-1.87,.31-3.74,.47-5.63,.43-.28,0-.69,0-.92-.03-2.49-.42-5.27-.37-7.6-.11-.95,.1-3.13,.23-3.11-.73,.02,0,0,0-.02,0,.06,0,.15,0,.31-.01,.94-.04,2.27,0,3.53,0,20.35-.01,40.79-.03,61.16-.05,.64,0,1.31-.04,1.95-.04,0,0-.07,.03-.03,.03s.16-.03,.23-.04c.38-.03,.82-.1,1.18-.19,.16-.04,.37-.06,.5-.07,.41-.02,1.19,0,1.47-.01s.12,0,.12,0c.52,.08,1.07,.25,1.6,.25,5.95,.01,11.89,0,17.84-.04,.29,0,.57-.06,.85-.1,2.74,.11,5.46,.19,8.21,.24,1.51,.03,3.05,.03,4.56,.04-.21,.13-.42,.26-.62,.4-.06,.04-.09,.1-.14,.15-3.48-.14-6.97-.38-10.46-.2-7.56,.38-15.16,.26-22.72,.31-2.32,.01-4.47,.02-6.74,.52-1.47,.05-2.95-.05-4.41-.16-1.3,0-2.6-.05-3.91-.13h1.95c-3.41-.21-6.76-.17-9.93,1.81h0s-.02-.01-.05-.03c-.17-.09,.26,.1-.21-.13-.47-.23-2.17-.08-2.66,.72-.03,0-.11,.03-.3,.07-.72,.16-2.5,.46-3.39,.59-.6,.08-.85,.09-1.2,.54,0-.01,0-.02,0,0h0s0,.04-.02,.1c-.06,.25,.11-.55-.14,.31-.41,1.45-.78,1.23,2.21,.88,3.15-.36,7.78-.13,11.37-.17,3.69-.04,7.64,.01,11.36-.03,.02,.09,0,.17,.02,.25-3.15,.16-6.31,.31-9.45,.47,.42,.17,.98,.35,1.41,.34,7.81-.1,15.58-.09,23.37-.16,2.41-.02,4.81-.05,7.21-.06,0,.02-.02,.05-.02,.06h0s.02-.02,0,.01,.05-.03-.03,.05c-.12,.13-1.43,.82-1.13,.99-.08,.05-.15,.08-.22,.12,6.68,.17,13.36,.34,20.04,.5-1.11,.05-2.22,.11-3.32,.16,.42,.18,.98,.34,1.41,.34,5.35-.05,10.65-.08,15.98-.09-.03,.84,.37,1.09,1.09,1.24-.08,0-.16,0-.24,.01-4.32,.24-8.63,.51-12.95,.8-.11-.08-.23-.12-.36-.15,0,.06,0,.12,0,.18-.2,0-.39,.04-.58,.03-3.03-.05-6.01-.12-9.06-.18-3.93-.07-7.91-.12-11.84-.6-1.18,.02-2.43,.06-3.56,0-.09-.02-.21-.04-.41-.07-1.28-.19-4.2-.35-5.8-.21-.09,0-.04,0-.06,0s0,0,0,0c-.3,.02-.59,.05-.89,0-.47-.07-1.02-.42-1.41,0h0c-5.26,.1-10.53,.2-15.79,.3-1-.29-1.67-.38-2.46,.41-.03,0-.06,0-.13,.02-.42,.05-1.75-.18-2.02,.38-.03,.06,1.33,.41,1.55,.34,10.49,.5,20.94,.22,31.41,.6,.82,.03,1.64,.04,2.44,.08-.08,.01-1.53,.06-.51,.13,1.29,.09,1.63,.14,3.38,.19s5.28,.12,7.37,.16c.41,.13,.65,.27,.95,.53-.09-.24-.25-.37-.44-.52,2.39,.05,4.78,.11,7.17,.21-.31,.02-.62,0-.88,.19,.45-.03,.88-.11,1.32-.25,.41,.01,.82,.03,1.23,.04,.17,.2,.15,.34,.07,.56,2.13-.22,5.3-.11,7.18,.07,1.88,.17,2.44,.38,4.07,.57h-11.65c.14,.19,.37,.34,.24,.59-.85-.02-1.69,0-2.53,0-.09,0-.16-.08-.24-.1,.56-.1,1.31,.1,1.67-.47-2.42,.02-4.83,.13-7.24,.35,.15,.02,.29,.04,.44,.06-.53,0-1.04,.03-1.57,.03-4.04,0-8.01-.03-12.07-.2-6.93-.29-13.86-.73-20.81-.17-.91,.06-2.38,.03-3.15-.17-1.38-.37-1.86-.22-3.07,.26,.24,.24,.45,.46,.73,.65-.67-.03-1.34-.05-2-.08,.13-.16,.21-.33,.27-.54-.84-.12-1.67-.25-2.51-.37-.26,.2-.61,.41-.47,.8-2.27-.09-4.54-.18-6.8-.27-.81-.29-1.62-.36-2.47-.36,.02,.09,.03,.18,.04,.27-.83-.03-1.67-.06-2.5-.09,0-.15,.02-.29,.03-.44-1.19,.11-2.37,.18-3.56,.22-.18-.03-.4-.12-.58-.13-1.36-.08-6.06,.88-5.3-1.57,1.96,.44,3.51,.47,5.56,.1,.71-.13,1.54,0,2.35-.56-.21,.09-.51,.19,.13-.09,2.12-.92,6.03-1.38,8.23,.05-1.88-1.29-3.66-1.46-6.06-1.48-.3,0-1.85,1.26-2.44,1.08-.05,0-.04,.03-.02,.04-.02-.01-.07-.04-.15-.08-.36-.17-1.05-.38-1.34-1.03-.67-1.51-2.47-1.3-3.79-.96h0s-.08,.01-.15,.02c-.48,.06-1.57,.05-2.16,.04-.04,0,.03,.03-.04,0s.12,.06-.09-.04c-.17-.08-.66-.17-.94,0,.1-.02,.06,.08-.76,.54-1.78,.98-6.73,1.33-9.08,.13-.09,.04-.13,.06-.14,.07h-.02s-.11,0-.34,.03c-.76,.07-3.35,.33-4.39,.82-1.62-.12-3.32-.38-4.85-.23-1.65,.15-3.07,1.36-4.49,1.72-.95,.24-.68-.04-1.44-.31-.33-1.89-3.64-1.22-4.64-1.18-1.32,.05-2.82-.14-2.68,1.35,.08,0,.6-.07-.2,.03-.92,.1,1.52-.16-.91,.11-3.4,.38-11.07,.85-15.38,.65-.98-.07-1.24-.33-1.84-.85,0,0,0-.02-.02-.04-.08-.12,.18,.2-.05-.11-.54-.73-2.7-.44-3.62-.2-.02,0-.07-.03-.09-.04-.42-.13-.84-.26-1.25-.4-.8,.08-1.59,.3-2.37,.48h-.1c-.24,.02-.94,.16-1.15,.46-.1,0,.34,.02-.14,0-.48-.02,.8,.04-.51-.02-1.87-.1-6.44-.46-8.87,.23-1.61,.46-3.21,.46-4.8,.49-1.26,.03-2.36,.04-3.56,.49,.02,.02,.05,.03,.1,.07,.37,.25,1.7,.4,2.1,.37,.89-.05,2.02-.24,1.64,.91,.94,.71,1.1,.87,2.44,.68,2.31-.33,4.98-.96,7.34,.06,0,0,.02,0,.02-.02,0,.06,.03,.13,.07,.26,.26,.86,1.47,1.14-1.51,.87-1.42-.13-4.15,.33-5.73,.76,4.08,.55,8.21,.38,12.34,.16,.02,0-.05-.02,.02,0,.06,.03-.12-.05,.06,.03,.29,.13,1.87,.52,1.66,1.17-1.15,.06-2.4,.12-3.54,.18-3.65,.17-7.25,.3-10.89,.41,.16-.12,.34-.22,.5-.34-1.57-.21-3.36-.56-4.75,.32-.76,.48,1.02,.8,1.31,.76,.08-.01,.47,.04,.6,.02-1.91,.72-3.85,.23-5.84,.13-1.38,1.24-4.09,.25-5.67,.29-3.86,.08-7.52,.6-11.31,1.09,2.52,.33,5.03,.11,7.56,.15-.35,.63-.83,.86-1.46,1.08-1.11-.16-2.04-.14-2.9,.69,2.06-.08,4.06,.06,6.1,.38-3.13,.73-6.05,1.06-9.23,.55-3.11,.6-6.22,.71-9.37,.81-2.01,1.43-4.33,.98-6.62,.87-1.27,.81-2.48,1.43-3.93,1.76,.93,.08,1.87,.04,2.79,.2-1.64,1.38-3.31,1.77-5.35,1.98,.32-.25,.68-.44,1.01-.67-1.95,.2-3.9,.46-5.7,1.16-1.09-.19-3.18,0,.49,.35,5.82,.54,10.61,.26,16.06,1.86-.64-.02-1.17-.02-1.76-.04,.05,.02,.1,.04,.14,.06-.48-.03-.96-.05-1.45-.08-.03,0,.08,0,.07,0-2.99-.11-5.97-.19-8.96,.18,.26,.03,.54,.07,.8,.08,.05,0,.03-.07,.08-.07,.23,.02,.44,.12,.67,.13,1.92,.09,3.82-.03,5.68,.57-1,0-2-.03-3-.06,2.2,.14,4.41,.26,6.62,.36-.07-.01-.14-.02-.21-.04h2.12c-.09,.06,.28,.07-.15,.12,3.47-.03,6.85-.02,10.18,.04,.05,.01,.1,.03,.16,.04,1.86,.04,2.78,.04,3.04,.02,13.87,.32,26.99,1.21,42.1,1.66,7.81,.23,17.67,.43,27.01,.69-10.03,.04-20.07,.07-30.1,.11,11.02-.02,22.03-.03,33.04-.03,1.73,.05,3.44,.1,5.09,.16-.27,.02-.52,.03-.7,.05-12.22,.96-24.33,1.42-36.51,1.96,.04-.02,0-.05-.31,.05-.56,.18,1.69,.29,2.69,.26-9.35,.72-17.08,1.41-16.06,1.11,1.48-.44-3.52,.33-5.41,.13,.02,0,.04,0,.03,0s.02,0,0,0h-.06c-.06,0-.13,.01-.23,.02-.84,.08,1.52-.14-.88,.09-3.45,.33-11.06,.88-15.43,1.02-1.07,.1-2.39,.25-3.17,.33-3.03,.31-5.7,.45-8.62,.71-.49,.51-2.56,.35-3.38,.44-.4,.04-1.59,.19-2.17,.23-3.91,.28-7.77,.71-11.62,1.45-1.65,.11-3.3,.33-4.88,.69,.1-.02,.12-.04-.42,.09-1.12,.26-.87,.54,.48,.49,1.66,.36,3.32,.74,5.03,1.05,.54,.1,1.15,.11,1.73,.13,1.65,.06,3.34,.06,5.01,.2,.31,.03,.61,.06,.92,.08,.31,.02,.64,.04,.96,.06,.32,.01,.66,.03,.98,.03,1.33,.03,2.66-.01,3.99-.11h.04c.51,.1,1,.19,1.53,.27,.27,.04,.56,.07,.85,.09,.45,.03,.91,.05,1.36,.07,.32,.01,.64,.02,.97,.03,.85,.02,1.71,.05,2.56,.07,10.19,.69,20.39,.34,30.59,.58,1.07,.02,2.14,.02,3.21,.04,.34,0,.68,0,1.03,.01,.5,0,1,.01,1.51,.02,1.15,.02,2.3,.04,3.45,.06,.66,.01,1.33,.03,1.99,.04,.34,0,.68,.01,1.01,.02,1.2,.03,2.41,.05,3.62,.07,1.79,.03,3.57,.06,5.36,.1,.92,.02,1.83,.04,2.75,.05,13.65,.16,27.3,.5,40.95,.7,2.16,.03,4.34,.08,6.5,.11,.69,0,1.39,.01,2.08,.02h1.01c.49,0,.98-.03,1.47-.05,1.77-.08,3.53-.02,5.3-.02-.46,.13-.32,.24,.06,.36,.03-.12,.05-.24,.08-.36,.22,0,.45-.01,.67-.03,.4-.03,.78-.08,1.18-.14,2.1,.22,4.18,.3,6.29,.2,1.52-.07,3,.11,4.52,.19,3.27,.18,6.55,.25,9.83,.28,.32,.06,.73,.08,1.03,.09,.21,0,.42-.06,.58-.06,.82-.02,1.58,.02,2.39,.02-.02,.17-.03,.34,.02,.51,.08,0,.56-.05-.23,.02-.93,.08,1.55-.13-.95,.08-3.27,.28-11.05,.77-15.26,.63-1-.09-1.24-.34-1.86-.87v-.02h0s0-.05,.02-.14c0,0-2.97-.78-3.7-.2,0,.01-.06-.05-.09-.06-.42-.12-.83-.27-1.25-.4-.81,.06-1.6,.23-2.36,.48-.02,0-.05,0-.09,.01-.24,.04-.94,.15-1.15,.44-.1,0,.36,.02-.14,0-.51-.03,.83,.06-.59-.03-1.62-.1-6.51-.46-8.77,.22-1.62,.49-3.22,.44-4.81,.48-1.26,.03-2.35,.02-3.55,.47,.02,.02,.05,.03,.1,.07,.37,.25,1.7,.4,2.09,.38,.89-.04,2.01-.24,1.63,.92,.94,.71,1.09,.87,2.43,.69,2.31-.32,4.98-.96,7.33,.07h.02c0,.06,.04,.14,.08,.27,.25,.84,1.42,1.16-1.52,.85-1.4-.14-4.14,.33-5.72,.74,4.08,.57,8.2,.4,12.33,.2-.02-.01-.07-.06,.03,.02s-.1-.09,.14,.1c.38,.3,1.12,1.09,1.42,1.59,.09,.02-.65-.03,.45,.05,1.29,.09,3.95-.2,5.74-.1,1.34,.08,3.47,1.33,4.6-.07,0-.05,.1-.17,.43-.41,.88-.64,4.17-.66,5.73-.96,.02,0,1.31-.03,1.42,.02,1.91,.9,2.83,.26,4.65-.28h.04c.19-.04-.32,.09,.2-.02,.77-.16,3.59-.81,4.36-.07,1.33,1.28,2.34,.89,3.86,.86s3.32-.04,4.73-.1c2.23-.1-2.1-1.14,1.53-.66,3.2,.42,5.58,.57,8.68,.13-.05-.01-.1-.02-.08-.06,.43,.23,1.76,.8,2.13,.64,2.19-.97,5.07-.74,6.99-.77,1.42-.02,1.78,.08,2.51-.8-.08-.02-.03-.02,0-.03,1.41-.8,2.76-.75,4.34-.82,.48-.02,.96-.02,1.52-.21,2.82-.96,1.13-1.35-.5-1.61-1.22-.19-5.75,.83-5.4-1.44,.24,.01,.5,0,.75,0,1.52,.3,2.96,.32,4.49,.06,1.07,0,2.14,.03,3.21-.02,1.9-.08,3.8-.06,5.7-.01,.35,0,.7,.02,1.05,.03,.71,0,1.43,.03,2.13,0,2.88-.1,5.75-.03,8.63,.05,6.16,.16,12.31,.03,18.47,.2,.36,.01,.73,.01,1.09,.02,.53,0,1.07,.02,1.6,.02,.7,0,1.41-.01,2.1-.04,2.26-.07,4.5,0,6.76,.06,.55,.02,1.11,.02,1.66,.03,2.9,.03,5.8,.06,8.7,.11,.17,.06,.33,.12,.49,.2,.22-.07,.45-.13,.67-.18,5.48,.09,10.95,.18,16.43,.23,2.56,.03,5.12,.07,7.69,.09,1.16,0,2.32,.04,3.47,.08,.15,.17,.28,.15,.51,.16s.58,.02,.82-.1c.39,.02,.76,.03,1.15,.05-.14,.08-.35,.21-.18,.38,0,0,.01,0,.03,.01,.06,.03,.26,.3,.21,.47-.02,.07-.03,.11-.06,.18s-.08,.04-.13,.11c-.2,.3-.13,.48,.05,.57-5.11-.05-10.23-.1-15.35-.17-4.26-.06-8.52-.38-12.78-.18-.37,.02-.73,.07-1.1,.07h0c-1.34-.39-2.54-.34-3.94-.34s-2.85-.01-4.27-.03c.32,.25,.6,.56,.81,.96,.11-.02,.08,0,.09,0h.02c.11,.12,.12,.26,.13,.43,1.38,.55,2.35,1.28,3.84,.79h.01c1.27,.55,2.33,.4,3.61,0h.02c.79,.13,1.72,.63,2.35-.1,.01,0-.04,0,.01,0,.06,0-.1-.01,.07,0,.16,.02,.76,.07,1,.04,.02,0-.11-.05,.09,.03,.31,.12,.92,.41,1.3,.37,.06,0,.06-.04,0,.01h0s-.04,.03-.08,.07c-.19,.18-1.01,.93-.06,.99-.81,.07-1.58,.09-2.37,.15,2.19,.05,4.34,.14,6.49,.61-.92-.08-1.77-.25-2.65,.11,.94,.08,1.87,.12,2.79,.33-1.57,0-3.12-.21-4.69-.2,.56,.02,.93,.12,.17,.69-.77,0-2.04-.09-2.7-.12-1.04-.05-1.53-.1-1.98,.84,.29,.25,.55,.39,.91,.52,.32-.03,2.3-.04,1.11,.56-.88,.44-2.35,.22-3.25,.82h0s-.12-.02-.23-.05c-.78-.15-2.69-.4-3.54-.04-.85,.37-1.63,.9-.6,1.63,1.63,1.16,3.37,1.37,5.52,1.6,1.25,.14,3.74,.71,4.58-1.08,.21-.44,1.33-.22,1.84-.14,3.06,.47,5.25,.71,8.21-.87,2.16-1.15,4.64-1.28,7.23-1.42,2.04-.11,4.38-.03,6.57-.06,6.37-.08,12.59,.38,18.93-1.44,.67-.19,1.91-.18,2.86-.17,3.63,.02,7.44-.25,11.09,.48,.9,.18,1.93-.03,2.77-.17,3.51-.61,7.6-.63,10.92-.91,2.44-.21,3.53,.95,5.76,.95s4.41-.68,6.68-.27c.77,.14,1.62,.34,2.41,.41,.44,.62,.86,1.23,1.29,1.85,.33-.94-.19-1.36-.9-1.82,2.38,.02,4.71-.28,7.05-.71,.38-.07,.72-.13,1.1-.19,.15,.14,.29,.28,.43,.43,.18-.15,.31-.33,.44-.54,1.67-.28,3.69,.04,5.25,.3,4.76,.81,9.01-.35,13.77-.28,.09,0,.69-.33,.82-.47,.04-.05,.08-.14,.08-.21,1.88,.35,3.94,1.43,5.76,1.55,1.22,.08,.99,0,.52-.71,1.79-.05,3.32-.53,5.16-.08,3.41,.84,6.74,.89,10.31,.88,4.02,0,8.15,0,12.25,.19,2.77,.12,5.64,0,8.37-.69,7.03-2.29,14.23-2.34,21.52-2.46,2.45-.04,4.95-.07,7.37-.65,.81-.06,1.62-.1,2.43-.11-.18,.09-.34,.17-.43,.36,.5-.13,1-.24,1.51-.34,.55,.02,1.1,.06,1.65,.11,.18,.17,.37,.3,.58,.43,.05-.12,.09-.23,.18-.34,1.12,.19,2.54,.43,3.57,.79,.86,.3,2.22,.63,2.73-.08,.95-1.31,2.67-.74,3.52-.4,1.29,.52,1.12,.4,2.13,.02,.79-.29,1.39-.05,2.18,.03,1.56-.26,3.13-.07,4.7-.29,2.11,0,4.23,.03,6.34,.05,0,.56,.01,1.11,.02,1.67-1.39,.08-2.78,.19-4.17,.34-.18,.61-.25,.85,.36,1.12,1.23-.63,2.47-1,3.82-1.19,.02,1.1,.05,2.21,.07,3.31,.64,.06,1.25,.14,1.85,.42,1.02-.26,2.15-.66,2.87,.37,1.35-.36,2.71-.7,4.03-1.19,.34,.26,.34,.46,.3,.88,1.32-.09,2.61-.05,3.92,.14,.64-.3,1.25-.63,1.89-.93,.41,.08,1.61,.14,.78,.65,3.5-.42,6.92-1.37,10.42-1.81,1.17-1.77,3.07-.96,4.76-.57-.23-.29-.8-.56-.33-.88,1.68,.24,3.31,.24,4.99,.08,.06,.54-.34,.8-.67,1.14,1.06-.12,2.13-.13,3.19-.31-.66-.13-1.29-.3-1.9-.62,1.06-.12,2.12-.27,3.19-.32,.09,.22,.17,.44,.26,.66,4.2-.56,8.43-.78,12.61-1.53,.86,.04,1.63,.33,2.45,.58-.22-.3-.5-.47-.81-.64,.49,.04,5.82,.79,4.34-.15,1.09,.11,2.18,.28,3.27,.37-.43,.11-.9,.23-.77,.74,.06-.05,.17-.07,.07,.07,1.44,.23,3.74,1.07,4.55-.66-.97,.08-1.92-.05-2.89-.15,.28-.02,.56-.05,.84-.1-.69-.13-1.3-.33-.28-.66-.35,.76,.94,.62,1.37,.62,.78-.39,1.59-.58,2.43-.76-.02,.13,.02,.2,.12,.26-.54,.19-1.04,.43-1.53,.76,2.29,.22,4.55,.25,6.85,.14-1.18,.42-2.39,.43-3.63,.53,.16,.53-.37,.69-.72,.91,.75,0,1.36-.05,2-.5,.69,.1,1.39,.08,1.92,.61-.54,.02-1.06,0-1.55,.27,1.44-.07,2.76-.02,4.12,.54,3.46-.34,6.94-.44,10.4-.59,.85,.04,1.49,0,2.33-.25,1.39-.4,2.72-.64,4.24-.68,1.02-.03,2.31,.15,3.27-.21,.18-.07,.47-.17,.95-.31,2.67-.82,9.04-1.21,12.38-.72,.11-.03-.1-.04-.14-.05,.04,0,.24,0,.88,.02,2.06,.04,6.05,.08,8.87-.22,1.35-.15,4.02-.21,5.51,.28-1.13,.07-2.39,.14-3.56,.22-1.58,.1-3.08,.13-4.58,.7h-.01c-1.22,.02-2.48,0-3.67,.18-.05,0-.11-.02-.21-.03-.84-.12-2.45-.17-3.4,.24-.49-.18-.81-.23-1.25,.04,0,0,.14-.02-.08,.02-.22,.04-.88,.09-1.15,.03-.04,0,.35,.07-.25-.05-.73-.14-2.52-.49-3.32,.3,.03-.02-.2-.2,.02,.06,.22,.25-.47-.41,.2,.32,.97,1.04,4.49,.45,6.13-.26,.98-.43,2.58-.32,3.66-.23,.05,0-.11,0,.1,.03,.21,.03,.74-.09,1.11-.09,0,0-.34,.07,.12-.02,.45-.09,1.61,.38,2.85-.12,2-.12,8.67-.66,11.32-.64,1.78,.28,3.39,.27,4.99,.18,4.7-.26,9.24-.52,13.9-.79,.86,.28,1.58,.38,2.4-.1,.82,.09,1.66,.5,2.26-.05,0-.08,.15-.26,.62-.64,1.36-1.09,6.51-.84,8.38,.59,.09-.07,.05-.06,.07-.08,.02-.02,0,0,0,0,.63-.03,1.25-.04,1.88-.07,.11-.75,.48,0,.75-.41,.26,.26,.54,0,.73,.36,.72-.02,1.44-.06,2.17-.07,1.79-.52,3.83-.24,5.63-.35,1.02-.06,1.82-.37,2.75-.37,6.73,0,13.56,.07,20.22,.12,.61,0,1.3,.02,1.91,.04,8.2-.18,16.39-.28,24.64-.12,7.52,.14,15.15-.74,22.68-1.11,6.91-.33,13.77-1.11,20.68-1.29-.03-.02-.07-.12,.05,.07,.21,.3,.09,.9-.11,1.24-.09,.03,.44-.09-.13,.04s.94-.19-.65,.15c-1.59,.34-5.96,.64-8.68,.93-3.71,.4-8.55,1.5-12.5,1.38-.23-.09-.29-.23-.51-.31-.33-.13-.95-.46-1.36-.36-.01,0-.03,0-.04-.01,0,0-.08-.02,.03,.01h-.02c-.48-.15-.85-.08-1.3,.07h-.05c-.46-.05,.74,.06-.61-.07-2.31-.23-6.21-.21-9.45,.24-2.5,.35-6.68-.03-9.48-.14-.91-.04-1.66,.36-2.58,.43-1.66,.13-3.34-1.03-4.76,.37h0s-.03,.02-.06,.04c-.15,.09-.73,.04-.94-.1-.87-.16-1.66-.4-2.43,.18h0c.01,.06-.03-.07,0,.06,.03,.13,.06,.2,.21,.46,.34,.6,.85,.92,1.6,.72h.04c.33,.23,1.11,.12,1.35,.02,.24-.1,.11-.04,.12-.04,8.51,.33,17.03-.34,25.53-.69,0,0-.03-.02,0,0,.04,.03-.07-.04,.04,.04,.19,.14,.62-.16,.89-.03,.06,.08,.16,.2,.35,.37,.83,.74,3.63,.05,5.18-.31,2.41-.57,5.36-.61,8.05-.63,8.78-.05,18.09,3.07,26.21-1.93,.07,0,.15,.02,.26,.03,.9,.12-1.55-.17,.86,.13,3.82,.47,11.71-.52,16.25-1.72,3.55-.12,6.66-.34,10.01-.97-3.51-.62-7.16-2.23-10.08,.59h-.17c-.66,0,1.08,0-.73,0-2.59-.01-9.66,.54-12.78,.8-2.13,.18-1.67,.2-2.59-1.19,.04-.01,.08,.04,.02-.02s.11,.07-.05-.07c-.24-.21-1.45-.16-1.55-.63,3.07-.31,6.12-.2,9.11-1.14,.02,0-.03,0,0,0,.04,0-.03,0,.15-.01,2.5-.66,8.72-.98,10.43-1.1,.31-.02,.51-.04,.64-.05,0,0,.04,0,.12-.01,.08,0,.12-.01,.17-.02h.02c2.27-.45,4.92-1.71,7.48-2.34-1.27-.04-2.5,.09-3.78,.33-.9-.01-1.79-.04-2.69-.11-3.48,.06-6.95,.24-10.42,.49,1.02-.14,2.01-.34,3.01-.62,.24-.14,.47-.29,.7-.46,7.56-.34,15.17-.62,22.72-1.12,7.18-.47,14.28-.61,21.48-.81,3.87-.11,7.93-.25,11.83,.04,1.16-.08,2.37-.19,3.48-.17,.08,.01,.19,.02,.36,.04,1.41,.16,4.16,.15,5.83-.08,.07,0,.03,0,.05,0s0,0,.01,0c.3-.03,.56-.08,.87-.05,.45,.05,1.02,.37,1.37-.08h0c5.09-.35,10.17-.71,15.26-1.06,.93,.23,1.67,.48,2.2-.53,.03,0,.06-.02,.12-.04,.29-.09,1.7,.13,1.79-.45,0-.06-1.42-.27-1.67-.27-10.38,.04-20.57,.8-30.95,.93-13.08,.16-26.29,.21-39.39,.8-6.48,.29-13.03-.14-19.46,.99-.15-.02-.27-.04-.4-.05-4.65-.34-8.86-.43-13.57,.34-3.06,.49-6.83,.38-9.93,.42-.91,.01-.53-.04-.64-.64,1.97-.04,3.86,.13,5.82-.08,6.89-.74,13.75-1.3,20.68-1.88,8.58-.72,17.34-.91,25.96-1.26,4.18-.17,8.5-.02,12.57-.46,.36-.04,1.05-.12,1.07-.12,0,0,.06,0,.03,0h0c1.36,.3,2.61,.21,3.99,.14,1.66-.08,3.32-.15,4.98-.22-.74-.14-1.43-.41-2.03-.87-.09,.01-.06,0-.07,0h-.02c-.16-.1-.24-.24-.33-.42-1.48-.53-2.62-1.5-4.13-.6h0s-.01,0-.02-.01c-1.27-.4-2.3-.32-3.53,.19h-.01s-.08-.05-.18-.1c-.13-.07-.36-.16-.62-.22,.13-.38,.44-.48,.83-.59,2.5,.37,5.51,.15,7.88-.13s3.65-.38,5.71,.69c.74-.23,1.07-.73,1.66-1.24,4.86-.34,9.69-.69,14.57-.5,2.91-.58,5.84-1.04,8.76-1.53-.33,.43-.85,.49-1.27,.78,4.01-.45,7.97-.71,12-.46,.57-.92,1.55-1.19,2.37-1.78-2.96,.1-5.79,.02-8.68-.7,1.46-.04,2.91,.12,4.37-.11-4.86-.18-9.62,.48-14.44,1.09-.05-.29,.04-.48,.21-.7-2.14,.06-4.19,.38-6.27,.89-5.64-.06-11.3,.34-16.9,.87-3.95,.38-7.8,.6-11.75,.68,.28-.22,.31-.43,.17-.76-.36-.22-.71-.36-1.12-.47-.25,.05-2.27,.19-1.35-.5,.68-.51,2.12-.25,2.8-.98,.05,0,.12,.01,.22,.03,.84,.1,2.61,.32,3.53-.15,.57-.29,.69-.51,.58-1.11,1.22-.35,2.45-.73,3.68-1.06,1.46,.03,2.75,.32,4.04-.5,.02-.02,.08-.06,.19-.13,.38-.23,1.72-.4,2.25-.02,1.48-.3,2.98-.44,4.44-.6,.21-.02,.39-.14,.49-.17,.24-.07,.5,0,.59-.23,.52,0,1.01,.14,1.54,.08,.14-.02,.37-.09,.51-.07,.89,.13,1.54-.02,2.37-.36h0s-.05-.05,.01,.02-.15-.1,.05,.09c.2,.19,.97,.11,1.02,.78,.04,.46,1.88,.5,2.26,.3-.38-.41-.9-.69-.92-1.35,.03,0-.39,.06,.27-.05,.66-.11,2.58-.4,3.48-.09,.37-.28,.2-.4,.05-.74,.01,.01-.06,.05,.03-.04,.09-.09,.47-.14,.6,.01,.46-.14,.9-.24,1.37-.29,.09,.05,.25,.1,.32,.14,.07,.05,.11,.15,.14,.19s-.02,.01-.03,.02c-.2,.29,.17,.4,.35,.17,0,0-.02,0,0,0h.05c.13-.01,.39-.1,.62-.08,.43,.04,1,.11,1.46,.12-.01-.07-.04-.13-.06-.19,.34,0,.72,.02,1.06,.03,1.99,.04,3.94-.1,5.85-.52h0s.12-.01,.23-.03c.84-.1,2.57-.3,3.59-.45,.63,.29,1.27,.03,1.55,.81,.8-.91,1.95-.12,2.82,.27,.5,.23,.92,.26,1.42,.39-1.28-.02-2.52-.09-3.78-.31-.25,.2-.45,.39-.73,.58-.53-.17-2.16-.46-2.5-.09-1.84,1.97-3.68,1.37-6.07,1.45-3.05,.1-6.36,.45-9.41,1.17,.23,.05,.49,.18,.74,.2,2.3,.2,4.73,.02,7-.09,5.78-.28,11.43-1.16,17.17-1.52,.45-.03,.9,.05,1.27,.09,.24,.02,.37,.21,.26,.33-.26,.29-.68,.32-.96,.54-.17,.13-.19,.3-.07,.44,.11,.14,.21,.17,.35,.23,.5,.24,1.03,.4,1.57,.55,.91,.27,1.81,.56,2.68,.95,.04,.02,.06,.02,.09,.04,.11,.08,.22,.12,.35,.2,.13,.08,.26,.2,.38,.31,.17,.18,.33,.37,.45,.6-.01,.01-.03,.04-.09,.1-.65,.77,0,2.28,1.1,1.19h0s-.01-.01,0-.01c.66-.19,1.33-.37,1.99-.56-.04-.15-.15-.24-.16-.4h0s-.01-.01,0-.02c.01,0-.27,.14,.15-.08,.66-.34,1.89-.94,2.64-1.41,0,0-.06,0,.08-.01,.14,0,.69,0,.89-.05,.37-.1,.52-.34,.79-.58,.9-.89,1.91-1.01,3.09-1.09,1.35,.24,2.72,.28,4.05,.62,2.01,.51,4.37,1.54,5.86-.43,.02-.04,.07-.12,.19-.24,.39-.37,2.02,.16,2.57,.4,2.19,.99,3.84,1.09,5.88-.25,2.02-.73,3.87-1.44,5.45-3.03-.05-.03-.09-.07-.15-.1-1.07,.06-2.38,.22-3.4,.26-.69,.02-.94-.35-1.54-.35,0,0,0,.2,0-.12,.01-.42,.93-.8,1.25-1.14,.2-.22-.17-.69-.51-.65-2.36,.29-4.1-.58-6.62-.41-4.01,.28-8.7,.77-12.8,1.21-2.3,.24-4.48,.47-6.58,1.29-2.55,1-4.63,.92-7.27,.48-.91-.15-2-.3-2.96-.31-.52-1.09-2.06-.05-2.59-1.17,2.26-.03,4.5,.01,6.74-.32-3.56,1.82-.69,1.44,.9,1.71,.63-.87-1.26-.87,1.26-1.04,.44-.03,.5-.25,.07-.46-.63-.3-1.32-.59-1.95-.89-2.53,.52-4.63,.61-7.15-.21-1.08-.35-2.47-.29-3.62-.37-.1,0-.25-.03-.17-.18,.22-.37,.86-.34,1.27-.36,.11,0,.31-.06,.47-.06,1.76,.04,3.55,.14,5.31-.02h0s.01,.01,.03,.02c.1,.09-.17-.13,.1,.09,.4,.33,1.38,.45,2.03,.43,4.96-.14,9.93-.02,14.87-.62,.31,.02,.62-.03,.93,0,.97,.12,1.89,.13,2.85-.03,1.27,.29,2.49,.03,3.77-.01,.01,0-.05,0,.01,0s-.1,0,.06,0h5.56c.1,.03-.16-.04,.13,.04,.28,.08,1.32,.2,1.72-.06h.02s0,0,0,0h.17c.36-.02,1.2-.01,1.75,0h1.86c1.53,0,3.13-.01,4.67-.01,.35,.16,.62,.15,.96,0h.05c.27-.04,.59,.03,.9-.02,.3-.05,.66-.22,.97-.25s.59,0,.91-.03c1.09,.35,2.56,.14,3.57,.02,.08-.01,.14-.02,.19-.03h.17c1.36,0,3.06,.19,4.49-.02,3.28-.06,6.56-.17,9.82-.06,.88,.03,1.62-.03,2.45-.28,0-.04-.09-.13-.11-.13-.46-.01,.12-.03,.53-.03,.53,0,1.63,0,2.28-.01-.59,.02-1.2,.07-1.8,.18,1.03,.26,1.97,.28,3.03,.27,3.85-.05,7.9-.13,11.73,0,5.39,.19,10.63-.16,16.01,.16,.55,.03,1.22-.03,1.79-.1,1.7-.19,3.38-.19,5.09-.22,.07,0,.15-.04,.18-.15,.03-.11-.16-.22-.26-.23-2.19-.27-4.37-.33-6.56-.36-.46,.06-.9,.18-1.33,.33,.39-.26,.82-.27,1.24-.47,.59-.09,2.59,.07,2.56-.84,0-.31-.86-.31-1.07-.34,4.46-.03,8.97-.04,13.45-.07,1.51-.05,3.83,.25,3.96-1.83,.03-.42-.17-.56-.29-.92-.06-.18-.46-.19-.61-.22,.38-.99-1.75-.63-2.48-.64-.46,0-1.58-.04-2.15-.04,1.7-.02,3.43-.08,5.14-.24,1.17-.67-.05-.91-.75-1.06l-.18,.41Zm-98.17-25.42h0s0,0,0,0h0Zm42.86-7.57c1.21-.02,2.42,0,3.63,0-1.74,0-3.48,0-5.22,0,.53,0,1.06,0,1.59-.02h0Zm-29.66,5.4s0-.02-.02-.03c-.08-.09,.05-.05,.02,.03Zm-.37,.06c.12,0,.17,0,.29-.02-.28,.04-.31,.04-.65,.05-.68,.02-1.55-.02-2.28-.04h2.64Zm62.03-46.77s.04,.01,.02,0c-.02,0-.1-.02-.11-.02,0,0,.08,0,.09,.01h0Zm-8.23-1.05s0,.05,0,.04c0,0-.01-.03,0-.04h0Zm-4.79,15.79c-.19,.23-.4,.36-.68,.44,.28-.09,.49-.21,.68-.44Zm-.34-.42c-.31,.15-.61,.3-.89,.51,.28-.21,.58-.36,.89-.51Zm-10.39,7.39c-.76,.06-1.51,.12-2.28,.1,.76,.02,1.52-.04,2.28-.1Zm-15.75,5.85h-.02s0,0,.02,0Zm-3.64,.85c.24,.07,.48,.17,.73,.2,.66,.09,1.36,.17,2.02,.18,.39,0,.67-.08,1.04-.2,.4,1.34-.9,1.21-1.97,1.25-.98,.04-2.47-.14-3.36,.66,.44-.88,1.44-1,1.55-2.09h-.01Zm-8.66-.77c-.13,.11,.04,.19-.19,.32-.04,.02-.84,.09-.97-.02-.13-.11-.21-.11-.32-.21,.49-.04,.98-.07,1.48-.09Zm-5.54,.98c-.2,.05-.4,.1-.6,.14,.19-.11,.38-.13,.6-.14Zm-14.39,3.42c1.54,0,3.07,.05,4.61,.13,3.46-.58,6.94-.89,10.39-1.52-1.38,0-2.75,.12-4.13,.19,2.82-.27,5.62-.66,8.43-1.01,.27-.09,.53-.2,.78-.35,1.89,.17,3.5,.1,4.91,1.66,0,0,.01,0,.02,.02-1.11-.02-2.22,0-3.33,.14-2.65,.32-5.39,.56-8.02,.37-1.99-.14-3.65,0-5.55,.51-3.17,.34-6.02,.41-8.33,3.05-.05-.04-.09,0-.14-.06s-.11-.19-.14-.26h0s.02-.03,.04-.06c.12-.23-.11,.33,.18-.28,.32-.67-.74-2-1.87-1.59,.7-.52,1.38-.72,2.16-.93h0Zm-2.28,2.96h0ZM129.67,14.53c-.02,.08,0-.05,0-.03h0v.03Zm-25.1,9.95c-.33-.08-.62-.19-.97-.24-.95-.13-1.93-.24-2.89-.29-.57-.03-1.06,.05-1.65,.14,.21-1.57,2.19-1.13,3.64-1.12,1.33,.01,3.79,.21,5.26-.47-1.07,.81-2.57,.77-3.4,1.98h.01Zm32.44-1.39c-6.04-.2-12.07,.22-18.1,.48-.45,.08-.88,.17-1.32,.3-2.2-.2-4.71,.08-6.25-1.89-.01-.01-.02,0-.02-.02,1.62,.08,3.28,.11,4.89,.04,3.87-.18,7.91-.28,11.71,.06,2.86,.25,5.29,.15,8.07-.22,4.49-.2,8.71-.3,12.78-2.59,.05,.04,.12,0,.15,.06s.02,.21,.06,.27h0s-.03,.03-.07,.07c-.26,.25,.36-.38-.33,.31-.8,.79-.29,1.96,1.57,1.61-4.39,1.17-8.74,.97-13.16,1.53h.02Zm14.38-3.54h0Zm6.32-3.1c1.14-.02,2.27-.06,3.42-.1-.31,.04-.5,.09-.83,.14-.84,.12-1.73,.14-2.59-.05h0Zm2.98,.75h0s-.03-.01-.05-.03c-.07-.03-.19-.07-.34-.1h.88c-.16,.04-.32,.09-.48,.14h-.01Zm3.3-1.64h3.53c-.91,.15-1.79,.16-2.72,.09-.25-.02-.55-.06-.81-.08h0Zm25.37,.93l-.12,.04c-2.84-.07-5.65-.21-8.48-.42-.25-.02-.58,.06-.83,.11-1.82,.39-3.41,.5-5.19-.13-1.89,.38-3.75,.56-5.67,.52-.28,0-.66,.01-.91-.04-.83-.16-1.58-.3-2.39-.39,.97-.03,2.11-.04,3.04-.04,1.62,0,2.98-.03,4.48-.6h7.73c1.76,.61,3.73,.63,5.51,.61,.91-.01,1.2-.13,1.89-.62h2.08c-.27,.55-.59,.78-1.14,.97h0Zm-10.13,2.13s.09-.02,0,0h0Zm67.95-2.29s.03-.01,.05-.02h0s-.04,.01-.05,.02Zm0,0h0s.03-.01,.05-.02h0s-.03,.01-.05,.02Zm.49-.18c-.14,.05-.23,.08-.3,.11-.03,0-.04,.01-.06,.02h0s.04-.01,.06-.02c-.04,.02-.08,.03-.1,.04h0c.07-.03,.19-.07,.4-.14-.17,.06-.29,.1-.41,.14h-.02s-.02-.02-.05-.03c-.23-.12-.59,0-.88,.02-.85,.08-1.88,.07-2.62,0-.26-.04-.63-.11-1.18-.19-3.61-.56-10.25-.28-15.03-.34-3.8-.04-9.2-.32-13.19-.28,2.72-.03,5.59,0,8.35-.03,1.22,0,2.37-.14,3.55-.34h1.75c.26,0,.12,0,.13,0,.52,.09,1.07,.3,1.6,.3,5.97,.02,11.92,.02,17.88-.02,.52,0,1.1-.21,1.58-.28-.1-.02-.24-.09,.37,.05,.29,.07,.72,.22,1.21,.38-1.35,.2-2.47,.42-3.04,.62h0Zm7.19-1.09c.04,.11-.15,.16-.08,0h0v0h.08s-.02-.04-.04-.06h0c.06-.08,.16-.19,.36-.36,.85-.7,5.02-.69,6.01,.54-1.35-.34-3.83-.32-6.33-.13h0Zm-75.94,11.87c.19-.09,.38-.14,.58-.18-.2,.03-.39,.09-.58,.18Zm1.25,.36c.44-.01,.84-.07,1.24-.27-.4,.2-.8,.26-1.24,.27Zm-73.71,9.18s.15,0,.16,0h.03c-.06,0-.12,0-.19,0Zm.1,3.71h-.04s.02,0,.02,0c0,0,.03,0,.03,0h0Zm2.44,1.1h.47s.03,0,.05,.02c-.18,0-.33,0-.52,0h0Zm1.43,1.6h0Zm1.97-9.45h0Zm.51,6.56h0Zm-.15,8.87h0Zm6.91-8.51h0Zm1.03-3.77h0Zm.07,14.6h0Zm2.79-17.16h0Zm-58.38,35.19c-.01,.07,0-.02,0-.03h0v.03Zm66.34,5.39c-.02,.07,0-.02,0-.02h0v.03h0Zm4.86-1.2s0-.03,.03-.03c0,.01-.02,.02-.03,.03Zm47.03,2.04c-.76,.14-2.47,.44-3.43,.59-.34,.05-.61,.08-.91,.23-.83-.04-1.6-.17-2.39-.46-1.88,.32-3.76,.48-5.66,.44-.28,0-.69,.01-.92-.03-2.51-.42-5.29-.36-7.64-.09-.95,.11-3.13,.28-3.12-.72-.04,0-.31,0,.29-.02,.91-.04,2.33-.02,3.58-.02,6.78,0,13.75-.03,20.58-.04-.03,.03-.12,.07-.14,.08-.03,0,.37-.07-.24,.04h0Zm-3.31,6.55s-.06-.01-.03-.02c.03,0,.12-.02,.13,0,0,0-.08,.03-.09,.03h-.01Zm-141.17,9.94c.34,0,.65,.02,.95,.09-.29-.08-.61-.09-.95-.09Zm33.34-5.22c-.34-.08-.63-.19-.98-.23-.95-.12-1.95-.23-2.9-.27-.58-.03-1.06,.06-1.66,.15,.21-1.57,2.2-1.15,3.66-1.15,1.33,0,3.82,.18,5.29-.5-1.07,.82-2.58,.79-3.41,2Zm47.11-5.24h0Zm-2.42,.04h0s-.03,.02-.06,.04c-.14,.09,.03-.02,.05-.05h0Zm-32.33,6.35c.22-.09,.08-.2,.43-.31,.06-.02,1.22-.06,1.4,.06,.18,.12,.23,.12,.37,.22-.74,.01-1.45,.03-2.19,.03h-.01Zm8.51-.74c.31-.04,.63-.08,.94-.12-.31,.09-.62,.12-.94,.12Zm7.57,19.16s-.3-.05,.25-.02h.06c.13,0,.31,.01,.58,.02h.25c-.38,0-.75-.01-1.14-.01h0Zm8.02-22.26c-5.13,.47-10.27,.58-15.4,1.07,1.99,.06,3.97,0,5.96-.02-4.2,.16-8.4,.43-12.59,.64-.45,.08-.89,.18-1.32,.31-2.21-.18-4.73,.12-6.3-1.85-.01-.01-.02,0-.02-.02,1.63,.06,3.3,.09,4.92,0,3.9-.21,7.96-.32,11.78-.02,2.88,.23,5.32,.12,8.12-.28,4.52-.23,8.76-.36,12.85-2.67,.05,.04,.12,0,.16,.06,.04,.07,.02,.19,.07,.26,0,0-.06,.04-.24,.17-1.93,1.35-.27,1.76,1.39,1.86-1.1,.41-2.17,.63-3.3,.79-2.02-.07-4.04-.17-6.06-.32l-.02,.02Zm13.8,22.81c-1.99-.02-3.85-.06-5.64-.11,2.85,.04,5.7,.09,8.57,.14-.98,0-1.95-.02-2.93-.03Zm17.39-2.06h0Zm15.5-20.06s.09-.03,.14-.03c.17,0,.33,.03,.49,.06-.21,0-.42-.01-.64-.02h0Zm2.21,.07c.08-.03,.15-.06,.23-.11h.05c-.05,0-.09,0,.19,0h3.22c.09,.07,.06,.15,.1,.24-1.26-.04-2.52-.09-3.78-.14h-.01Zm-16.41,35.26s.06,0,0,0h0Zm5.5,5.1c-.34-.08-.62-.19-.97-.23-.95-.12-1.94-.23-2.89-.28-.58-.03-1.06,.05-1.65,.14,.21-1.57,2.2-1.14,3.65-1.14,1.33,0,3.81,.2,5.28-.49-1.07,.82-2.58,.78-3.41,1.99h0Zm29.41-40.28s-.03,0,.06,0c.15,.02,.67,.07,.88,.09-.36,0-.72,.02-1.08,.02,.04-.04,.09-.07,.13-.12,0,0-.04,0,0,0h0Zm.4,35.57c-.23,.13-.76,.26-.96,.29-.63,.1-.85,.14-1.27-.32,.75,.03,1.49,.03,2.23,.02h0Zm2.74,3.23c-6.06-.18-12.1,.26-18.16,.55-.45,.08-.89,.18-1.32,.31-2.2-.19-4.72,.1-6.27-1.87,0-.01-.02,0-.02-.02,1.62,.07,3.29,.1,4.91,.02,3.88-.19,7.94-.31,11.75,.01,2.87,.24,5.3,.13,8.1-.25,3.88-.21,7.64-.47,11.38-1.7,.31,0,.62,.01,.93,.02-.97,1.32,.96,1.31,1.82,1.44-4.33,1.08-8.73,.95-13.12,1.5h0Zm88.35,7.3c1.32,.59,2.6,.52,4,.42-1.42,.16-2.7,.31-4-.42Zm8.76-2.75c-.07,0-.08-.12-.13-.16,.22,.04,.43,.09,.63,.16-.17,0-.33,.03-.5,0Zm329.14,.58h-.23c.6-.04,.44-.03,.23,0Zm124.57-1.69h.03c.17,.04,.44,.12,.71,.19-.24-.04-.48-.09-.74-.2h0Zm137.75-12.84s-.09,.03,0,0h0Zm-98.36,5.52c.16-.01,.3-.02,.46-.03,1.74-.16,3.49-.25,5.24-.34-1.9,.14-3.8,.27-5.7,.38h0Zm93.06-14.05c-.28,.04-.54,.12-.79,.3,.25-.18,.51-.26,.79-.3Zm-67.51,.68c-.89,.11-1.78,.17-2.67,.21,.89-.07,1.78-.13,2.67-.21Zm-228.78,19.91c.13,.06,.25,.11,.38,.15-.13,.07-.26,.15-.39,.23-.41-.03-.83-.06-1.24-.09,.41-.1,.83-.21,1.25-.3h0Zm-54.99,.88c.04-.19,.44-.49,.6-.66-.05,.39-.25,.61-.61,.74,.02,.02-.03,.11,0-.08h.01Zm-212.46-3.62c.06,0,.27,0,.36,.01h-.43s.03,0,.04-.01h0s-.04,0,.02,0h.01Zm-16.97-54.01c-.06,0-.1,.02-.17,.02-2.62,.11-5.25,.17-7.87,.37-.45-.13-.9-.26-1.35-.38h9.39Zm-134.09-16.37h0Zm-2.16-.27h0Zm-.49-.18h0Zm-2.98-.58h0Zm55.86-21.61c-.14,.01-.3,.02-.48,.02,.06-.01,.08-.03,.1-.05,.13,0,.26,.01,.37,.03h0Zm-.21-.91s.15-.02,.28-.03c0,0-.05,.02-.08,.03h-.2Zm.46,1.02h0Zm-28.26,21.99h0Zm-29.75-3.68h0Zm1.95-15.69h0Zm2.4,5.01h0Zm2.87-.05h0Zm.91,.75h0s-.02,0,0-.02v.02Zm1.06-1.94h0Zm.5,4.66h0Zm10.76-3.37h0Zm6.81-3.81h0Zm2.34-1.02h0Zm3.52,.93h0Zm9.29-1.15h0Zm-7.32-.49s-.02,0-.03,0c-.02,0-.03,0-.05,0h.08Zm-12.63,5.54h0Zm8.98,2.44h.24c-.05,0-.11,0-.16,0-.03,0-.05,0-.08,0Zm-15.63,1.31h0Zm-1.23-3.54h0Zm-4.15,4.25c.11,0,.21,0,.27,.02h-.16s-.07-.02-.11-.02Zm10.86,6.06h0Zm-7.18,1.05h0Zm-7.31,0h0Zm-1.47,.35h0Zm-1.46-1.2h-.13s-.04,0-.06-.02c.06,0,.13,0,.2,0h0Zm46.25-15.6h0Zm.24-.91s.03,0,.04,0h.28c-.11,0-.22,0-.32,0h0Zm.32,.74h0Zm0,.89h0Zm-55.58,4.35h0Zm-4.32,2.39h0Zm.43-6.95h-.09c-.2-.02,.13,0,.09,0Zm71.99-1.56h0Zm5.45,.18h0Zm1.07-3.24h0Zm.48,1.29h0Zm3.82,.48h0Zm4.91-.04h0Zm4.8-1.77h0Zm.58-1.38h0Zm82.97,.61c.76,0,1.52-.09,2.28-.17,1.67-.03,3.35-.03,5.02-.03,2.33,.32,4.6,.28,6.89,0h.31c.35,.01,.69,.02,1.01,.02,2.46,.04,4.95,.01,7.42,.02,.56,0,.86-.03,.92-.08-.15-.04-.52-.05-.92-.05h0c.23-.07,1.07-.15-.53-.17h-6.44c.19-.03,.38-.06,.57-.1,.3-.05,.57-.1,.84-.15,.4,0,.79,0,1.19-.02-.24-.01-.54-.02-.88-.03,.25-.04,.49-.08,.74-.11,1.34,0,2.67-.01,4.01,0h.17c.42,.08,.85,.24,1.21,.3,2.41,.36,4.74,.24,7.08,.04h3.14c2.22-.01,3.45-.07,3.57-.28h3.71c.95,.34,1.92,.64,2.81,.68,1.16,.05,1,0,.55-.67,2.04,0,4.07,.02,6.08,.06-1.19,.08-2.53,.04-3.76,.07-.48,.01-1,.02-.94,.08,.05,.05,.54,.05,.93,.05,1.6,.02,3.22,.05,4.74,0,2.3,.39,4.64,.5,7,.45-1.07,.09-2.13,.14-3.2,.08-2.13-.12-4.23-.05-6.36,.15-.4-.06-.78-.11-1.19-.14-.22-.02-.45-.02-.67-.03-.03-.12-.05-.24-.07-.36-.37,.11-.53,.22-.06,.36h-.84c-.28,0-.53,0-.83,.01,0,0,.1,0-.04,0-.08,0-.74,.01-.95,.02h-.06s0,0-.17,0c-.54,0-1.72,0-2.46-.06-.42-.03-1.01-.05-1.47-.06h-1.01c-.69,0-1.39,.02-2.09,.02-2.18-.01-4.36,.11-6.54,.13-4.96,.05-9.93,.14-14.89,.24-4.69-.19-9.58-.23-14.42-.06-2.79,.1-5.49,.11-8.3,.1-2.43,0-4.85-.03-7.27-.04-.17-.01-.34-.03-.5-.04-.56-.08-1.45-.09-2.34-.09h-.4c.23-.04,.45-.08,.66-.11,3.52-.61,7.63-.63,10.95-.92,2.44-.22,3.55,.96,5.77,.94l.03-.05Zm37.09-.83h0Zm-28.81,1.11h0Zm73.96-1.05c-.45,0-.9-.02-1.35-.03,.2-.06,.4-.13,.61-.19h.34l.4,.21h0Zm-112.87,.48c3.51,.01,7.18-.23,10.73,.4-4.56,0-9.11,.02-13.67,0h-.79c.3-.08,.58-.14,.88-.22,.68-.19,1.89-.18,2.85-.18Zm-13.03,0c-.68,.16-1.36,.15-2.07,.1-.45-.03-.95-.08-1.42-.07-.95,0-1.9-.03-2.84-.19-.26-.04-.51-.08-.77-.11,.19-.03,.38-.05,.57-.07,2.66,0,5.3-.04,7.98-.01-.48,.11-.97,.23-1.46,.35h0Zm-8.55-.2c-.16,.05-.27,.07-.44,.14-.12,.05-.22,.09-.33,.14-.18,0-.37,0-.55,.01-.46,.01-.99,.04-.93,.09,.06,.06,.62,.05,1.09,.05-.17,.07-.35,.12-.53,.16h-1.68c-.51-.08-1.02-.22-1.48-.38,.67,.08,1.35,.18,2.01,.3,.08-.31,.22-.49,.4-.6,.71,0,1.41-.01,2.11-.02,.11,.03,.22,.06,.33,.1h0Zm-9.99-.68c-3.49,.02-6.97,.2-10.45,.34h-.15c4.18-.46,8.37-.66,12.57-.8-.65,.21-1.3,.35-1.97,.46Zm-22.3,43.18c2.55-.75,4.85-.73,7.44-.11,.61,.15,1.26,.3,1.89,.37-3.4,0-6.81,.01-10.21,.02,.31-.07,.58-.2,.88-.28Zm571.65-8.49s-.01,0-.02,.02h.02v-.02Zm-.56,.68h0Zm-1.49,.09h0Zm-3.95-.04h0Zm-3.23,.41h0Zm-8.43,3.23h0Zm-6.25-1.38h0Zm-2.29,.18s-.04,0-.07,.01h.07Zm-16.67,.53s-.04,0-.06,.01c-.04,0-.09,0-.13-.01h.19Zm-.44-.53s-.05,.02-.1,.02c-.08,0-.14-.02-.14-.02h.24Zm-1.93,.35c-.23-.01-.46-.03-.69-.04,.36,0,.7,0,.69,.04Zm-3.62-.3h0Zm-5.85,1.73h0Zm-5.88-3.28h0Zm-11.72,.58h0Zm32.94-1.77h-.02c-.09,0-.17,0-.24,0h.26Zm-17.73,3.53v.03h-.09s.06-.02,.09-.03Zm7.02,.96h0Zm18.22-.82h-.25c.08,0,.14,0,.21-.01,0,0,.02,.01,.03,.02h0Zm65.29-12.66s.03,0,.04,0h.06s-.06,0-.09,0h0Zm13.37-1.97c-.93-.02-2.29-.15-2.65-.05-.41,.11,1.26,.15,2.39,.18-.39,0-.78,.02-1.17,.03-.67,0-1.43-.03-2.1-.02-.12,0-.23,.03-.33,.04-.05,0-.11,0-.16,0,.14-.04,.22-.12,.41-.16,.39-.09,1.58,0,2.16-.33,.33,.02,.79,.03,1.17,.04,2.54,.06,5.1,.1,7.62,.16-1.85,.07-3.7,.15-5.56,.2-.46-.05-1.13-.07-1.77-.08h0Zm8.64-.57c-.24,.07-.7,.03-1.12,0-.33-.02-.93-.03-.98,0-.04,.03,.46,.07,.72,.1h0c-.18,.03-.36,.06-.54,.09-2.09-.08-4.36-.08-6.56-.12-.47,0-1.01-.02-1.43,0,.06-.07,.09-.15,.11-.24,.21,0,.44,0,.7-.02,1.74-.06,3.14-.04,4.73,0,1.03,.08,2.39,0,3.49,.06,.51,.02,1.11,.05,.89,.11v.02Zm-103.1,50.95s.13,.02,.14,.02,.01,0,0,0-.12-.02-.14-.02-.02,0,0,0Zm52.27,6.95c3.44-.19,6.86-.54,10.3-.86-3.98,.68-7.99,1.07-12.01,1.4,.56-.24,1.13-.41,1.71-.55h0Zm78.2-42.51h-.36c0-.07,0-.12-.01-.16,.24,0,.47,0,.7-.01-.11,.06-.22,.12-.33,.18h0Zm3.05,1.21h0c.34-.09-.56-.11-1.22-.14,0-.04,.01-.09,0-.12h.07c1.01,.04,1.67,.03,2.16,0-.32,.16-.66,.23-1.02,.27h.01Zm-2.5-1.53c-.31,0-.62,.01-.95,.02h0s1.05-.06,1.05-.06c0,0-.06,.03-.09,.05h0Zm-.63-.29h0Zm7.56,.99c.24-.05,.84-.08,1.2-.1,.15,0,.27-.02,.39-.03,.98,0,1.96,.01,2.94,.04-1.51,.05-3.02,.08-4.53,.09Zm1.25-.72c.35,.01,.89,.02,.69,.07-.06,.02-.11,.03-.14,.04-.93,.02-1.86,.1-2.75,.28-.97-.02-1.95-.03-2.93-.03,.44-.08,.87-.18,1.31-.3-.34-.04-.69-.04-1.03-.08,1.57,.06,3.19,.07,4.86,.02h0Zm-2.91-1.02h0c-.09,0-.17,0-.24-.01,.08,0,.16,0,.24,.01Zm-5.32-3.1h0c-.11-.02-.21-.03-.32-.05,.15,0,.31,0,.47,0,.11,.04,.24,.06,.35,.08-.16,0-.32-.02-.51-.02h.01Zm-9.32-7.98h0Zm12.72-1.39c-.97-.03-1.93-.06-2.89-.09-.19-.02-.39-.05-.58-.07,.72-.06,1.92-.05,2.45-.13h0c.15,0,.31,0,.46,.02,.18,.12,.37,.21,.57,.28h-.01Zm-7.2-40.79h-.03s-.02-.02-.01-.02h.05v.02Zm-15.62,36.04s-.07,.04-.11,.04c-.13,0-.26-.02-.39-.04h.5Zm-1.96,0c-.06,.03-.12,.07-.17,.12,0,0,.01,0,0,0-.02,0,.02,0-.02,0s-.24,.02-.3,0c-.06,0-.03-.09-.06-.12h.55Zm-8.59-40.45c.34,.07,.66,.16,1.01,.19,.92,.08,1.9,.15,2.82,.15,.54,0,.93-.09,1.47-.21,.46,1.49-1.57,1.24-2.85,1.28-1.17,.04-3.47-.12-4.7,.71,.63-.88,2.03-.9,2.25-2.12Zm4.44,42.97c1.33-.06,3.53,.3,3.88-1.47,.2-.03,.5-.08,.7-.11,.84-.1,2.17-.12,2.87,.04,1.25,.28,1.59,.25,2.59-.38-.32-.23-.61-.43-.95-.61h1.8c-.05,.19-.02,.35,.02,.54,.79,.09,1.59,.18,2.38,.26,.17-.29,.27-.52,.04-.81,1.95,0,3.91,0,5.86,.02,.73,.24,1.44,.29,2.19,.27-.05-.09-.1-.17-.14-.26h2.12c.06,.14,.11,.29,.16,.44,.96-.15,1.9-.28,2.87-.33,.17,0,.34,.1,.54,.1,1.61,.04,4.59-.94,5,1.37-1.6-.36-2.96-.38-4.57,.08-.54,.16-1.14,.16-1.57,.53,0,.03-.13,.15-.63,.45-.96,.58-3.84,1.06-5.64,.43,1.49,.68,2.99,.84,4.8,.85,.27,0,1.16-1.14,1.59-1.19,.07-.02-.19-.1,.15,.02,.44,.16,1.12,.41,1.53,.97,.17,.24,.36,.42,.55,.58-.26,0-.52-.02-.77-.04-2.7-.13-5.48-.24-8.22-.36-.8-.06-1.68-.11-2.59-.16,.17-.06,.29-.17,.3-.35,0-.06-1.19-.29-1.43-.29-3.03-.03-6.05,.03-9.07,.12-5.15-.27-10.52-.5-16.13-.68,3.25,0,6.51-.02,9.76-.03h.01Zm-17.39-41.39c.37-.09,.73-.21,1.09-.36,2.41,.13,4.69-.04,6.7,1.58,.01,.01,.02,0,.03,.02-.78-.03-1.55,.02-2.33,.02-6.03,0-12.06-.03-18.09-.03,4.21-.32,8.41-.8,12.61-1.23h-.01Zm-107.81-1.82c-1.4-.45-2.73-.38-4.17-.22,1.46-.23,2.77-.34,4.17,.22Zm-118.97,3.82s.07,.02,.08,.02,0,0,0,0h-.01s-.15,.01-.16,0c-.01-.01,.07-.02,.09-.02h0Zm-7.81-.39s.05,.02,.06,.02h-.08s.02-.02,.03-.02h-.01Zm.05,.61h0s.01,0,0,0c-.02,0-.07,.06-.1,.05-.04,0-.1-.05-.13-.06h.23Zm-110.76-1.13c.31,.02,.61,.04,.92,.05-.32,.05-.64,.11-.95,.18,.05-.08,.06-.14,.04-.23h-.01Zm-17.03,2.71h0s.01,0,0,0c-.02,0-.06,.07-.1,.06s-.1-.06-.13-.07h.23Zm-10.55,2.71h0Zm-23.77-6.08h.71s-.02,0-.04,.01c-.11,.04-.54,.16-.72,.19,.01-.07,.04-.14,.06-.22v.02Zm-3.29-.68h0Zm-62.54,17.87s.01,.02,.02,.02c-1.14,.1-2.27,.11-3.4,.06,1.13-.02,2.25-.05,3.38-.08Zm-10.14-14.65h0Zm-16.56,15.15c.33-.02,.66-.03,1-.04,.36,.12,.74,.26,1.12,.4h-2.64c.11-.06,.22-.12,.31-.19h.33c.25,0,.64-.03,.68-.05,.09-.04-.35-.07-.75-.07h-.11s.01,0,.01-.01c0,0,.03-.04,.05-.04h0Zm-36.39-13.02h.04l-.02,.02s-.01-.01-.02-.02h0Zm-13.09,12.62c-.69,0-1.38,.01-2.07,.02h-.01c.69-.01,1.39-.02,2.08-.01h0Zm-31.49,.79c-1.29,.01-2.56,.03-3.82,.06,1.27-.06,2.54-.09,3.82-.06Zm-5.15-2.51c.71-.01,1.42-.02,2.14-.03-.96,.2-1.93,.4-2.9,.59,.25-.19,.5-.38,.76-.56h0Zm-14.7-.25h0c2.12,.09,4.19-.34,6.32-.2,.45,.03,.94,.17,1.41,.2-2.81,.08-5.37,.17-8.24,.26-3.74,.11-7.74,.11-11.54,.06-.05-.03-.09-.07-.13-.11,4.06-.07,8.12-.14,12.18-.22h0Zm-47.41,3.14c5.77,.36,11.58,.22,17.34-.02,4.06-.17,8.03-.21,12.08-.09-.02,0-.03,.02-.04,.03-1.45,.02-2.9,.04-4.35,.06-8.37,.11-16.64,.28-24.9,.45-.8,0-1.64,0-2.4,.02-.55,.02-1.1,.03-1.64,.05,1.31-.09,2.61-.26,3.92-.48v-.02Zm-19.89,2.14h0Zm-1.7-.17h.23c-.06,0-.14,.02-.24,.02,0,0,0-.01,0-.02h0Zm-14.78-2s-.07-.01-.08-.03c0-.02,.04,0,.04,0,0,0,0-.03,0-.02,.47,.4-.1,.61-.45,.77,.21,.33,.27,.59,.25,.81-.28,.01-.56,.02-.83,.03-.37,.01-.74,.03-1.1,.04,.61-.37,1.2-.75,1.83-1.05,.3-.15,.47-.22,.32-.55h.01Zm-21.96,1.6c.23-.93,1.03-.02,1.66-.14,.95-.02,1.78-.05,2.63-.57-.1,.49-.38,.44-.89,.57-.69,.17-1.73,.4-2.52,.56-.29,.06-.63,.13-.92,.21,.08-.17,0-.45,.05-.62h-.01Zm-14.27,8.19s-.04,0-.06,0c.03,0,.07,0,.09,0h-.03Zm.23,.84h.02c-.07,0-.14,0-.21,0h.19Zm1.76,.35h0Zm-.99-1.46h0Zm-.72-4.18h0Zm1.36,16.96s-.1,0-.14,0h.16s-.02,0-.02,0Zm1.68,1.14h0Zm.61-2.3h0Zm1.99,1.19h0Zm6.73,3.02h0Zm8.8,12.32c-.07,.04-.06,.09-.15,.12s-.22,0-.31,.01c.37-.17,.74-.35,1.09-.56,.06,.02,.13,.04,.19,.07-.29,.08-.57,.21-.83,.35h0Zm67.71,14.41c.17-.02,.37-.07,.53-.09,1.66-.23,3.28-.22,4.94-.1-1.83,.05-3.65,.12-5.48,.19h0Zm15.82-1.97h0s0,0,0,0h-.23c-1.85,.03-3.71,.06-5.56,.08-.08,0-.15-.08-.24-.08-.2,0-.38,.09-.58,.09-2.41,.05-4.81,.07-7.22,.11-1.74-.18-3.45-.2-5.19-.06-1.5-.18-3-.28-4.51-.33,.05-.13,.08-.18,.18-.24,.02,0-.45,.02,.25,0,.95-.03,2.32-.02,3.58-.02,10.17-.01,20.47-.04,30.68-.05-3.7,.37-7.43,.4-11.15,.5h0Zm22.72,20.5c-.61,.03-1.22,.05-1.83,.07,0,0,5.86-.31,1.83-.07Zm30.87-27.65h-1.55c.63-.16,1.26-.26,1.9-.31-.1,.12-.22,.21-.35,.3h0Zm-2.91,0c-12.41,0-24.81,0-37.22,.02,2.12-1.03,3.96-.74,6.28-.71,2.94,.04,6.12-.12,9.1-.49h1.85s-.11,0,.13,0h2.79c.56,0,1.25,.01,1.86,.01,1.22,0,2.51-.01,3.74-.01-.11,.14-.2,.29-.27,.46,1.92-.13,3.67-.14,5.5,.58,3.31-.23,6.59-.68,9.92-.62-1.26,.13-2.47,.31-3.67,.76h-.01Zm4.79-1.06c-.37-.04-.73-.08-1.1-.12h1.15s-.04,.08-.05,.12Zm.68,1.05h-.24s.17-.02,.2-.02c.02,0,.08,.02,.04,.02h0Zm-11.09,54.7c4.04-.07,8.09-.13,12.13-.2h0c2.14,.14,4.15-.39,6.32-.17,1.85,.19,3.81,.46,5.7,.45-.03,.07-.07,.12-.1,.18-3.99,.39-7.94,.59-11.96,.64-1.98,.02-4.01,0-6,.03-2.12-.08-4.14,.1-6.09-.93h0Zm48.76,1.97c-6.05,.07-12.01-.05-17.93,1.42-.7,.11-1.35,.15-2.06,.09-.46-.04-.95-.08-1.41-.08-.94,0-1.89-.04-2.83-.19-.47-.08-.95-.15-1.41-.15s-.81,.09-1.24,.24c-.7,.24-1.18,.57-1.97,.54-1.85-.09-3.17-1.07-5.16-1.25-3.05-.27-6.55-.04-9.7,.05,2.97-.57,5.75-.87,8.82-.96,3.67-.11,7.54-.23,11.23-.65,.32,.07,.64,.05,.94,.16,.34,.12,.62,.27,.99,.21,.93,.22,1.84,.36,2.81,.42,.17,0,.39-.03,.58,.02s.35,.19,.52,.26c.23-.09,.47-.18,.71-.26,2.29,0,4.56,.05,6.85,.06,2.29,0,4.58-.1,6.87-.21,1.23,.08,2.45,.12,3.68,.1,.14,.03,.36,.11,.62,.19-.3,0-.61,0-.91,.01v-.02Zm6.36-.07c-1.11,0-2.24,.02-3.37,.03,.04-.07,.08-.13,.08-.23h0s2.12,.07,2.29-.07c.57,.12,.96,.17,1.47,.22-.15,0-.32,.05-.47,.05Zm75.28,0c.58-.44,1.25-.68,1.87-1.03,1.61,.7,2.92,.53,4.56-.01,.7,.8,1.79,.69,2.66,1.18-3.03,.12-6.06-.19-9.09-.14Zm102.8,1.11s.21-.06,.27-.02c-.08,0-.2,0-.27,.03-.02,0-.02,.02,0,0Zm.47,1.7c.55,0,1.09,.03,1.62,0-.53,.02-1.07,0-1.62,0Zm-.38-1.67c1.32-.04,2.55-.18,3.75-.51-1.2,.34-2.43,.47-3.75,.51h0Zm8.12-4.32c.64,.09,1.25,.15,1.86,.14-.61,.02-1.22-.04-1.86-.14Zm1.85-.8c-.07,.11-.51,.17-.67,.08,.23-.04,.45-.11,.69-.12-.02,0,.05-.07-.02,.05h0Zm44.06,5.53c.31,.05,.6,.12,.89,.23-.29-.11-.59-.18-.89-.23Zm1.19-2.38c-1.27-.07-2.54-.1-3.81-.05,1.45-.2,2.84-.27,4.29-.08-.16,.06-.32,.1-.48,.13Zm1.27,2.41c-.02-.21-.03-.38,.07-.56-.1,.19-.09,.35-.07,.56Zm-.41-1.3c1.01-.1,2-.23,3.01-.33,.28-.03,.61-.03,.9-.08-1.3,.28-2.57,.46-3.91,.41h0Zm5.77-2.64c.05-.28,.08-.53,0-.82,.08,.28,.04,.53,0,.82Zm.25-.81s.1,0,.2,.01c.52,.03,1.99,.08,2.65,.36-.93,.05-2.29,.78-2.86-.37h0Zm24.43,2.16c.11-.09,.22-.14,.35-.19,.02,.09,.04,.16,.09,.24-.14-.02-.29-.03-.43-.05h-.01Zm63.01-11.24c-1.38,.68-2.8,1.2-4.27,1.62h-.43c.54-.06,1.03-.1,1.44-.52-2.92,.31-5.86,.31-8.77,.64,1.97,.08,3.94,.16,5.9,.32-.36,.06-.73,.16-1.09,.2-1.43,.16-2.84,.33-4.25,.58,.03-.62,.21-.7-.46-.88-3.62,.23-7.23-.2-10.85,.05,.32,0,2.38-.05,1.91,.36-1.02-.04-2.02-.18-3.03-.31-2.8,.99-5.67,1-8.58,1.31-.77-.19-1.49-.45-2.21-.8-2.14,.87-4.28,1.09-6.55,1.22,.59-.66,1.52-.55,2.29-.8-3.03,.42-6,1.03-8.97,1.8-.68-.11-1.3-.41-1.96-.58-.9,1.84-3.54,1.51-5.22,1.62-.22-.48-.41-.84-.13-1.35,1.08,.07,2.06-.04,3.09-.38-.65-.69,.4-1.04,.88-1.41,.39,.05,1.18,.03,.9,.64,4.2-.42,8.42-.65,12.62-1.06-.16,.47,.04,.55,.44,.66-.15-.54,.86-.54,1.19-.74-.19-.09-.39-.17-.44-.4,.3,0,.6,.02,.9,.01,1.84-.03,3.68-.14,5.51-.25,8.9-.32,17.78-.83,26.67-1.37,1.2-.03,2.39-.11,3.58-.23-.04,.02-.08,.03-.13,.06h.02Zm16.04,.47s-.02-.02-.03-.02c1.11-.16,2.21-.22,3.33-.23-1.1,.07-2.2,.16-3.3,.24h0Zm75.3-3.63c.68-.04,1.36-.08,2.05-.12h.02c-.69,.04-1.37,.08-2.06,.11h-.01Zm18.48-2.48c-3.61,.16-7.48,.58-11.15,.07-.9-.13-1.85,.11-2.66,.31-3.38,.82-7.2,.97-10.46,1.44-2.39,.34-3.92-.77-6.13-.67-2.21,.11-4.25,.85-6.47,.59-3.28-.38-6.42-.06-9.59,.72-.96,.24-1.61,.38-2.54,.54-.95-.04-1.95,.04-2.9,.08-.55,.02-1.29-.22-1.77-.27-4.6-.44-8.76,.83-13.33,1.03-.09,0-.52,.36-.59,.51,0,0-.01,.04-.03,.04-.33,.03-.64,.06-.98,.08-1.75-.42-3.7-1.18-5.43-1.16-1.35,.02-.79,.24-.14,.73-1.77,.13-3.2,.66-5.05,.33-3-.54-6.17-.62-9.25-.4,1.04-.14,2.07-.24,3.12-.23,2.08,.02,4.14-.15,6.2-.46,.41,.04,.82,.07,1.24,.09h.68c.08,.12,.16,.24,.25,.35,.45-.18,.25-.28-.11-.36,.28,0,.56-.02,.84-.03,.27-.01,.53-.02,.81-.05h0c.3-.02,.7-.04,.98-.06h.09s-.07,0,.14,0c.55-.03,1.72-.07,2.47-.05,.42,.01,1.02,0,1.48,0,.32,0,.68-.03,1.01-.05,.68-.04,1.38-.07,2.07-.11,2.13-.12,4.3-.27,6.42-.4,13.46-.85,26.9-1.79,40.36-2.62,.91-.06,1.81-.11,2.72-.18,1.76-.13,3.52-.24,5.27-.36,1.19-.08,2.36-.16,3.55-.24,.33-.02,.66-.05,.99-.07,.65-.04,1.3-.09,1.95-.14,1.13-.08,2.26-.15,3.38-.23,.49-.03,.99-.06,1.48-.1,.34-.02,.67-.04,1.01-.06,1.06-.07,2.09-.12,3.16-.2,2.41-.17,4.82-.33,7.24-.46-2.7,.32-4.91,.74-7.6,1.77-.62,.24-1.78,.26-2.73,.3v-.02Zm18.46,2.46c-.7,.04-1.39,.09-2.09,.13,.85-.25,1.71-.49,2.57-.72-.15,.2-.31,.4-.48,.59Zm-8.44-2.21c.99-.22,1.87-.56,2.85-.86,.63-.2,1.29-.21,1.99-.2,.44,0,.96,.03,1.43,0,.95-.05,1.93-.05,2.89,.05,.26,.03,.54,.06,.81,.07-3.31,.78-6.59,.92-9.97,.93h0Zm13.06-.87c-.5,.06-1.18-.06-1.7-.19,.14-.06,.21-.08,.36-.17,.6-.34,.93-.61,1.7-.64s1.79,.13,2.59,.35c-.69-.05-1.41-.11-2.11-.2,.12,.67-.23,.77-.84,.84h0Zm9.94,2.64c-.08,0-.04,0,0,0,.14,0,.33,0-.22,0-1.22,0-4.2,.54-5.89,.5-.36,0-1.08-.13-1.47-.14,2.71-.21,5.18-.43,7.96-.65,3.63-.29,7.57-.48,11.27-.61,.07,.03,.12,.06,.18,.1-3.94,.27-7.9,.53-11.82,.8h-.01Zm15.95-.95c-.11,.1-.2,.22-.24,.4-.05-.02,0-.01-.04-.01,.01,0,.03,0-.06,0-.22-.01-.75-.03-1.02,0,0,0,.11,.03-.11-.02s-1.2-.27-1.4-.29h-.07s-.02,0,0,0c0,0,.01,0,0,0-.01-.01,.02-.03,0-.04,.97-.02,1.94-.02,2.91-.02l.03-.02Zm-1.56-6.1c.18,0,.38-.07,.56-.05,.56,.04,1.05,.19,1.56,.44-.7-.27-1.39-.36-2.12-.39Zm18.45-3.79s-.04-.04-.03-.04c0,0,.07,.02,.06,.04,0,.02-.02,0-.03,0h0Zm13.73-2.21s-.13,.03-.12,.02c0,0,.13-.03,.15-.03s-.01,0-.02,.01h-.01Zm51.13,3.47c.61-.21,1.52-.49,2.21-.68,.26-.07,.55-.16,.8-.26,.01,.2,.21,.45,.25,.62,.22,.94-1.06,.09-1.55,.22-.85,.05-1.63,.06-2.3,.7-.12-.44,.15-.45,.6-.6h-.01Zm-14.65-.43c-1.08,.56-1.77,1.56-2.77,2.27-.23,.16-.29,.36-.03,.55,.03,.02,.07,.02,.09,.03,.02,0-.05,0-.05,0v.03c-.5-.28-.32-.51,.07-.79-2.09-1.81,1.44-1.86,2.68-2.07v-.02Zm-5.55,4.38h0l-.02,.02c-.06,.06,.03-.05,.01-.03h0s.01,.01,.01,.01Zm-3.64-9.33h-.08s.06-.01,.08,0c.01,0,.01,.02,0,.02v-.02Zm5.58-5.13l-.02-.02h.01v.02Zm31.1,4.73c.44-.01,.88-.03,1.32-.04-.44,.07-.88,.07-1.32,.04Zm31.95-.34c-.75,.03-1.72,0-2.51-.03h2.89c.13,0,.18,0,.31-.02-.31,.04-.33,.04-.69,.05Zm.77-.09s0-.02-.02-.03c-.08-.09,.06-.05,.02,.03Zm29.84-5.42c.56,0,1.12-.02,1.69-.02,1.28-.02,2.56-.01,3.84,0-1.84,0-3.68,0-5.53,.02Z"/>
        <path d="M846.02,101.47c.14,0,.31-.05,.46-.09-.12-.05-.19-.13-.33-.14-.14,0-.31,.05-.46,.09,.12,.05,.19,.13,.33,.14Z"/>
        <path d="M693.36,112.68h-.01s-.18,.01,.01,0Z"/>
        <path d="M425.38,8.04s.05-.02,.07-.03c.22-.14-.13-.05-.07,.03Z"/>
        <path d="M231.87,122.58c-.91,.06-2.38,.03-3.15-.18-1.38-.37-1.86-.21-3.08,.25,1.44,1.18,2.5,1.01,4.28,.77,.55-.08,1.61,.47,2.19,0h.06c.17,.02-.29-.03,.18,.02,.67,.07,2.35,.07,3.22-.03,.18,.43,.26,.86,.39,1.29,.79-.06,1.56-.22,2.32-.42h.6c.17,0,.41,0,.59-.02,2.24,.54,4.25,.31,6.5-.03,1.51-.23,3.29,.91,4.39-.62,.04,0,.08-.01,.14-.02,.52-.08-.88,.18,.56-.06,.59-.1,1.62-.42,2.81-.72-.41-.01-.81-.02-1.22-.03-6.92-.29-13.86-.75-20.8-.2h.02Z"/>
        <path d="M545.71,129.4c1.7,.19,3.69,.44,4.95-.73-.77,.61-3.24,.8-4.95,.73Z"/>
        <path d="M550.69,128.66s.08-.07,.12-.11c-.05,.05-.1,.08-.15,.13,0,0,.02,0,.03-.02Z"/>
        <path d="M253.89,122.81c2.2,.08,4.38,.13,6.56,.15-1.57-1.19-4.35-.71-6.56-.15Z"/>
        <path d="M125.13,79.33c.03-.09,.1-.14,.18-.18-.08,.02-.23,.11-.18,.18Z"/>
        <path d="M550.81,128.55c.08-.08,.14-.14,.18-.18h0c-.05,.07-.11,.12-.17,.18h-.01Z"/>
        <path d="M550.94,128.39s-.01-.06-.02-.08c-.04,.03-.06,.07,.02,.08Z"/>
        <path d="M47.61,83.35h0c-.09-.06,0,0,0,0Z"/>
        <path d="M52.8,110.18h.03c.47-.05-.05,0-.03,0Z"/>
        <path d="M153.36,127.34s-.06,.08-.1,.12c0,.08,.25-.03,.1-.12Z"/>
        <path d="M122.1,121.7h.01c-.09-.06-.01,0-.01,0Z"/>
        <path d="M802.81,120.01c.6,.2,2.29-.65,3.17-.35h.02c4.98,3.94,10.54,.11,16.01-.18,4.47-.23,9.1-.16,13.57-.37,1.49-.07,2.73,.01,4.08-.69-11.26,.25-22.54,.47-33.79,.73-1.12-1.52-2.03-1.29-3.82-.93-.51,.1-1.08,.17-1.68,.22,.75,.27,1.47,.71,2.13,1.38-.03,.02,0,.08,.31,.19h0Z"/>
        <path d="M800.38,118.44c-1.49-.54-3.14-.41-4.82,0,.32,.01,.65,.03,.98,.06,1.18,.06,2.57,.05,3.84-.07h0Z"/>
        <path d="M832.61,112.32c-1.26,.03-2.53,.05-3.79,.1,1.2,.23,2.52,.12,3.79-.1Z"/>
        <path d="M545.71,129.4c-.38-.04-.75-.08-1.1-.1,.29,.05,.67,.08,1.1,.1Z"/>
        <path d="M788.05,120.79c-.23,.05,.46-.04,0,0h0Z"/>
        <path d="M584.98,128.44s-.09,.02-.13,.03c-.58,.22,.19,.05,.13-.03Z"/>
        <path d="M641.02,127.21c-.05,.07-.11,.12-.17,.18-.02,.12,.3-.04,.17-.18Z"/>
        <polygon points="161.24 27.79 161.26 27.79 161.25 27.78 161.24 27.79"/>
        <path d="M787.75,120.82s.49-.04,0,0h0Z"/>
        <path d="M940.05,45.63h0s.02,0,.02,0h-.01s-.01,0-.01,0Z"/>
        <path d="M871.25,9.81h0s.02,0,.02,.01h-.02Z"/>
        <path d="M891.87,66.4h.08c.31,.02-.08,0-.08,0Z"/>
        <path d="M886.44,52.07c-.01,.1-.06,.16-.12,.21,.03,.04,.19-.09,.12-.21Z"/>
        <path d="M871.93,50.88c-.27-.12-.53-.26-.8-.41,.22,.17,.5,.31,.8,.41Z"/>
        <path d="M878.04,50.13c.05-.06,.11-.08,.16-.13,0-.04-.19,.05-.16,.13Z"/>
        <path d="M189.6,22.05c-.91,.06-2.38,.03-3.15-.18-1.39-.37-1.86-.21-3.09,.25,1.44,1.18,2.51,1.01,4.29,.77,.55-.08,1.61,.48,2.19,0h.06c.17,.02-.29-.03,.18,.02,.67,.07,2.35,.07,3.23-.02,.18,.43,.26,.86,.39,1.29,.79-.06,1.56-.22,2.32-.42h.61c.17,0,.41,0,.59-.02,2.24,.54,4.26,.32,6.51-.03,1.51-.24,3.29,.91,4.4-.62h.13c.5-.03-.86,.09,.48-.02,1.3-.1,3.18-.56,5.08-.72-1.13-.03-2.25-.06-3.39-.1-6.93-.27-13.87-.75-20.83-.19h0Z"/>
        <path d="M840.77,5.53s.05-.07,.08-.11c-.01-.06-.21,.02-.08,.11Z"/>
        <path d="M128.69,79.15c.11-.02,0-.01,0,0h0Z"/>
        <path d="M132.16,64.69h-.03c-.36-.05,0,0,.03,0Z"/>
        <path d="M134.28,81.53s-.09,.06-.13,.09c.09-.04,.17-.08,.13-.09Z"/>
        <path d="M213.82,22.34c.95,.03,1.91,.06,2.86,.08-.91-.16-1.89-.16-2.86-.08Z"/>
        <path d="M154.52,71.03c-1.76,0-3.51,0-5.27,.01,.65,.04,1.31,.09,1.96,.14,1.1,0,2.2-.04,3.31-.15Z"/>
        <path d="M796.73,10.06l-.05,.02s.05,0,.05-.02Z"/>
        <path d="M111.19,26.66s-.06,.08-.09,.11c0,.08,.24-.03,.09-.11Z"/>
        <path d="M856.12,111.43c.89-.11,2.39-.13,3.15,.02,1.37,.27,1.76,.22,2.89-.4-1.61-.92-2.7-.91-4.51-.55-.56,.11-1.63-.49-2.15,.12h-.06c-.17,0,.29-.01-.19,0-.62,.03-2.3,.11-3.13,.15-.38-.4-.66-.83-.99-1.25-.71,.09-1.39,.26-2.06,.53h-.04c-.11,0-.38,.02-.55,.03s-.4,.02-.57,.05c-2.18-.41-4.15-.16-6.29,.35-1.44,.34-3.06-.7-4.02,.83-.04,0-.08,0-.13,.02-.52,.07,.88-.15-.51,.05-1.09,.16-2.66,.64-4.32,.93,1.04-.02,2.07-.06,3.11-.06,6.81-.04,13.6,.09,20.4-.83h-.03Z"/>
        <path d="M80.02,20.91h0c-.09-.06,0,0,0,0Z"/>
        <path d="M157.12,17.37c.05-.07,.13-.12,.21-.16-.06,0-.25,.09-.21,.16Z"/>
        <path d="M113.44,44.82c-.18-.02-.29-.05-.45-.05-.15,0-.44,.02-.49,.03-.11,.03-.01,.06,.43,.06,.17,0,.32-.02,.52-.04h-.01Z"/>
        <path d="M893.71,63.69c0,.14,1.35,.09,2.23,.12,.51,0,1.28,0,1.24-.06-.06-.12-1.37-.1-2.21-.13-.63-.02-1.26,0-1.26,.07h0Z"/>
        <path d="M886.64,54.84c.08,.13,1.31,.07,2.03,.1,.57,0,1.36,.02,1.24-.06-.16-.1-1.33-.09-2.12-.11-.64-.02-1.19,.02-1.15,.08h0Z"/>
      </g>
    </g>
  </g>
</svg>